<?xml version="1.0" encoding="UTF-8" standalone="no"?>
<!-- Created with Inkscape (http://www.inkscape.org/) -->

<svg
   xmlns:dc="http://purl.org/dc/elements/1.1/"
   xmlns:cc="http://creativecommons.org/ns#"
   xmlns:rdf="http://www.w3.org/1999/02/22-rdf-syntax-ns#"
   xmlns:svg="http://www.w3.org/2000/svg"
   xmlns="http://www.w3.org/2000/svg"
   xmlns:sodipodi="http://sodipodi.sourceforge.net/DTD/sodipodi-0.dtd"
   xmlns:inkscape="http://www.inkscape.org/namespaces/inkscape"
   id="svg4193"
   version="1.1"
   inkscape:version="0.91 r13725"
   xml:space="preserve"
   width="1488.3"
   height="1052.4"
   viewBox="0 0 1488.3 1052.4"
   sodipodi:docname="intech_logo.svg"><metadata
     id="metadata4199"><rdf:RDF><cc:Work
         rdf:about=""><dc:format>image/svg+xml</dc:format><dc:type
           rdf:resource="http://purl.org/dc/dcmitype/StillImage" /><dc:title /></cc:Work></rdf:RDF></metadata><defs
     id="defs4197" /><sodipodi:namedview
     pagecolor="#ffffff"
     bordercolor="#666666"
     borderopacity="1"
     objecttolerance="10"
     gridtolerance="10"
     guidetolerance="10"
     inkscape:pageopacity="0"
     inkscape:pageshadow="2"
     inkscape:window-width="1676"
     inkscape:window-height="1011"
     id="namedview4195"
     showgrid="false"
     inkscape:zoom="2"
     inkscape:cx="1271.3683"
     inkscape:cy="548.05315"
     inkscape:window-x="1600"
     inkscape:window-y="18"
     inkscape:window-maximized="0"
     inkscape:current-layer="g4543" /><g
     inkscape:groupmode="layer"
     id="layer6"
     inkscape:label="intech rouage"
     style="display:inline"><g
       inkscape:groupmode="layer"
       id="layer4"
       inkscape:label="intech rouage jaune"
       style="display:inline"><path
         style="fill:#f8ca01"
         d="m 0.10278611,0.2565912 c -3.326e-4,2.4744e-4 -0.001285,6.329e-4 -0.002117,8.5656e-4 -8.3149e-4,2.2363e-4 -0.001784,5.4256e-4 -0.002117,7.087e-4 -3.3259e-4,1.661e-4 -0.001557,6.0333e-4 -0.0032109,0.001047 -0.0016539,4.439e-4 -0.0032137,0.001157 -0.0041798,0.001626 -4.9889e-4,2.4185e-4 -0.0016103,7.3446e-4 -0.0024697,0.001095 -8.5944e-4,3.6026e-4 -0.0016758,7.8309e-4 -0.0018142,9.3962e-4 -1.3834e-4,1.565e-4 -4.783e-4,3.7486e-4 -7.5546e-4,4.8523e-4 -2.7716e-4,1.1038e-4 -9.5747e-4,4.9869e-4 -0.0015118,8.6292e-4 -0.0031317,0.002058 -0.0037169,0.002427 -0.0038474,0.002427 -7.905e-5,0 -6.0634e-4,3.148e-4 -0.0011717,6.9955e-4 -5.654e-4,3.8475e-4 -0.001799,0.001166 -0.0027414,0.001735 -0.0032078,0.001939 -0.0046137,0.003002 -0.005535,0.003739 -9.2127e-4,7.3654e-4 -0.0015983,0.001199 -0.0020006,0.001385 -0.0013562,6.2951e-4 -0.0014628,0.001017 -0.0013055,0.004737 1.016e-4,0.002403 2.9875e-4,0.004019 7.3518e-4,0.006024 3.28e-4,0.001507 5.9636e-4,0.002931 5.9636e-4,0.003165 0,2.3375e-4 1.7443e-4,8.9144e-4 3.8763e-4,0.001462 2.132e-4,5.701e-4 7.6221e-4,0.002255 0.00122,0.003745 l 0.0012093,0.003848 8.7551e-4,0.002708 c 9.2368e-4,0.002905 0.0013534,0.004127 0.0019543,0.005559 l 0.0011059,0.002708 0.0010601,0.002619 c 7.406e-4,0.001791 0.0018006,0.004394 0.0023583,0.005791 l 0.0016221,0.003991 0.0020692,0.005131 c 4.9619e-4,0.001254 0.0011022,0.002729 0.0013467,0.003278 0.0013334,0.002993 0.0018997,0.004523 0.0020054,0.005417 1.1655e-4,9.8638e-4 9.762e-5,0.001017 -0.0017453,0.002849 -0.0021649,0.002152 -0.0097476,0.0127876 -0.01107701,0.0155369 -4.5488e-4,9.4071e-4 -0.0012437,0.002354 -0.0017529,0.00314 -0.0012248,0.001891 -0.0033522,0.005592 -0.004338,0.007548 -4.3542e-4,8.6354e-4 -0.0010897,0.002046 -0.0014539,0.002628 -6.7239e-4,0.001074 -0.0059515,0.0124935 -0.0065324,0.0140555 -1.7496e-4,4.7035e-4 -5.3599e-4,0.001231 -8.0229e-4,0.00169 L 0.0583686,0.3826634 0.0566753,0.3815044 0.0534702,0.3793424 C 0.0507843,0.3775614 0.0471421,0.3751274 0.0463144,0.3745604 0.04587094,0.37425681 0.0451453,0.37382856 0.0447018,0.37360872 0.04425834,0.37338888 0.0431698,0.37279532 0.0422829,0.37228972 0.04139599,0.37178407 0.0400437,0.37106472 0.0392778,0.37069072 0.03851192,0.3703172 0.0377863,0.36990141 0.0376652,0.36976677 0.03754416,0.36963214 0.03694625,0.36929519 0.0363365,0.36901803 0.03572675,0.36874089 0.0349557,0.36831771 0.0346231,0.36807766 0.0342905,0.36783761 0.0335195,0.36748667 0.0329097,0.36729782 0.03229995,0.36710899 0.0310981,0.36668137 0.0302389,0.36634759 l -0.0031244,-0.001214 c -0.0042824,-0.001512 -0.0082122,-0.00334 -0.01239792,-0.002999 -4.6166e-4,1.746e-4 -0.0019354,0.001034 -0.0021974,0.001429 -4.5849e-4,6.9019e-4 -0.0012577,0.003519 -0.0020343,0.0072 -2.031e-4,9.628e-4 -4.7864e-4,0.00204 -6.1232e-4,0.002393 -2.3475e-4,6.2033e-4 -8.7833e-4,0.003716 -0.00150935,0.007259 -1.6751e-4,9.4071e-4 -5.2721e-4,0.002801 -7.9932e-4,0.004133 -7.118e-4,0.003486 -0.0014888,0.008358 -0.00172667,0.0108257 -1.1297e-4,0.001172 -3.4157e-4,0.002776 -5.08e-4,0.003563 -1.6642e-4,7.8763e-4 -4.3626e-4,0.003127 -5.9965e-4,0.005199 -1.6338e-4,0.002072 -4.2167e-4,0.004445 -5.7397e-4,0.005274 -1.523e-4,8.2876e-4 -3.433e-4,0.002824 -4.2445e-4,0.004434 l -1.4755e-4,0.002927 0.00178575,0.002585 c 0.00281631,0.004077 0.00774155,0.009008 0.01347694,0.0134918 3.3259e-4,2.6004e-4 0.0011943,9.7267e-4 0.0019149,0.001584 0.0013168,0.001116 0.0039097,0.002972 0.0087684,0.006275 0.01385367,0.009417 0.01701962,0.0116793 0.01735228,0.0123973 3.6511e-4,7.8803e-4 5.8978e-4,0.003936 8.7619e-4,0.0122745 1.2474e-4,0.003632 3.4001e-4,0.006645 5.9065e-4,0.008267 2.1691e-4,0.001404 4.5375e-4,0.003386 5.2633e-4,0.004405 3.0095e-4,0.004226 0.0015204,0.0125443 0.0027583,0.0188141 2.3215e-4,0.001176 5.3426e-4,0.002908 6.7135e-4,0.003848 2.9858e-4,0.002049 0.0012287,0.006352 0.0022184,0.0102622 0.0010656,0.004211 0.0018236,0.009724 0.0018236,0.0101182 0,1.9071e-4 -1.5873e-4,4.1995e-4 -3.5275e-4,5.0946e-4 -4.0616e-4,1.874e-4 -0.002932,0.001509 -0.0049842,0.002609 -7.7349e-4,4.1434e-4 -0.0014991,8.6137e-4 -0.0016126,9.9344e-4 -1.1344e-4,1.3204e-4 -7.0513e-4,4.9171e-4 -0.0013149,7.992e-4 -6.0976e-4,3.0753e-4 -0.0018797,0.001034 -0.002822,0.001616 -9.4235e-4,5.8104e-4 -0.0020421,0.001228 -0.0024438,0.001437 -4.0176e-4,2.0944e-4 -0.0013995,9.2338e-4 -0.0022173,0.001587 l -0.0018904,0.001522 c -0.005562,0.004357 -0.0091503,0.006602 -0.01014071,0.009511 -2.8274e-4,8.3064e-4 -0.001078,0.002344 -0.0017672,0.003363 -6.8921e-4,0.001019 -0.001491,0.002351 -0.0017818,0.00296 l -8.8038e-4,0.001853 c -1.9343e-4,4.1006e-4 -3.5217e-4,0.001018 -3.5275e-4,0.00135 -1.01e-6,6.1343e-4 0.0052559,0.0155942 0.0065193,0.018578 6.5213e-4,0.00154 0.0012383,0.002967 0.0041231,0.0100363 0.0013683,0.003353 0.0028533,0.006598 0.004761,0.0104048 l 0.0022628,0.004561 c 0.0028926,0.005908 0.006406,0.0128927 0.0067136,0.013347 2.0442e-4,3.0188e-4 0.0013557,8.8039e-4 0.0027505,0.001382 0.0022562,8.1154e-4 0.0026327,8.636e-4 0.0063295,8.7531e-4 0.0021619,6.84e-6 0.0045656,-1.2374e-4 0.0053417,-2.9025e-4 7.7605e-4,-1.6648e-4 0.0025902,-5.1781e-4 0.0040314,-7.8076e-4 0.0014412,-2.6294e-4 0.0032554,-7.7579e-4 0.0040315,-0.00114 7.7605e-4,-3.6391e-4 0.0017285,-7.4264e-4 0.0021165,-8.4159e-4 3.8802e-4,-9.897e-5 0.0013404,-4.8172e-4 0.0021165,-8.5057e-4 7.7605e-4,-3.6887e-4 0.0019552,-8.606e-4 0.0026204,-0.001093 6.6518e-4,-2.3218e-4 0.0019351,-8.3534e-4 0.002822,-0.00134 8.8692e-4,-5.0505e-4 0.0022001,-0.001234 0.0029181,-0.00162 7.1806e-4,-3.8597e-4 0.0013984,-8.0345e-4 0.0015118,-9.2768e-4 1.1343e-4,-1.2426e-4 6.1442e-4,-4.2756e-4 0.0011133,-6.7406e-4 4.989e-4,-2.4646e-4 0.0014513,-7.7471e-4 0.0021165,-0.001174 0.0022141,-0.001329 0.0019405,-0.001558 0.0066703,0.005603 0.0023039,0.003488 0.0048775,0.007305 0.0057191,0.008481 0.003098,0.004328 0.009856,0.0130868 0.0123299,0.0159793 0.003931,0.004596 0.009787,0.0111269 0.0114629,0.0127841 l 0.005241,0.005183 c 0.002051,0.002029 0.003898,0.003975 0.004104,0.004325 4.5089e-4,7.6636e-4 3.5896e-4,0.002599 -2.5744e-4,0.005133 -2.1593e-4,8.8757e-4 -4.5592e-4,0.002228 -5.3332e-4,0.002979 -7.739e-5,7.5071e-4 -3.1801e-4,0.002186 -5.3471e-4,0.003189 -4.6118e-4,0.002135 -8.1053e-4,0.004814 -0.002178,0.0167054 -5.2823e-4,0.004594 -6.1886e-4,0.0175206 -1.429e-4,0.020382 1.6952e-4,0.001019 3.7078e-4,0.002522 4.4725e-4,0.003339 7.647e-5,8.1762e-4 4.4001e-4,0.002741 8.0788e-4,0.004274 5.0586e-4,0.002108 8.1251e-4,0.002944 0.001258,0.00343 3.2429e-4,3.5365e-4 0.003621,0.002809 0.007326,0.005456 l 0.0103644,0.007423 c 0.0039,0.002805 0.004624,0.003267 0.009172,0.005851 7.2062e-4,4.0958e-4 0.001582,9.3163e-4 0.001915,0.00116 3.326e-4,2.2847e-4 0.001005,6.1117e-4 0.001494,8.5045e-4 4.8931e-4,2.3928e-4 0.001006,5.7111e-4 0.001147,7.374e-4 1.4168e-4,1.6628e-4 7.8446e-4,5.4315e-4 0.001428,8.3748e-4 6.4394e-4,2.9433e-4 0.001942,9.3682e-4 0.002884,0.001428 9.4235e-4,4.9094e-4 0.002258,0.001152 0.002923,0.00147 6.6518e-4,3.1732e-4 0.001708,8.6974e-4 0.002318,0.001228 0.002578,0.001513 0.003051,0.001304 0.005749,-0.002536 0.002127,-0.003028 0.003514,-0.005587 0.004806,-0.008868 5.1021e-4,-0.001296 0.001066,-0.002431 0.001236,-0.002523 1.6939e-4,-9.192e-5 4.1521e-4,-5.2349e-4 5.4628e-4,-9.5905e-4 1.3106e-4,-4.3556e-4 3.8967e-4,-0.001048 5.7469e-4,-0.001362 0.001072,-0.001817 0.003549,-0.0102541 0.0041,-0.0139681 6.985e-5,-4.7036e-4 3.4954e-4,-0.001881 6.2154e-4,-0.003136 l 9.2228e-4,-0.004276 c 4.1821e-4,-0.001951 0.001109,-0.006923 0.001338,-0.009621 1.1297e-4,-0.001335 1.2457e-4,-0.001354 8.4479e-4,-0.001358 4.0164e-4,-2.85e-6 0.001456,2.4635e-4 0.002343,5.522e-4 8.8692e-4,3.0581e-4 0.002338,7.5644e-4 0.003225,0.001001 l 0.003024,8.4563e-4 c 0.001624,4.6075e-4 0.008127,0.001669 0.012387,0.002302 0.001602,2.3808e-4 0.005717,5.8748e-4 0.009143,7.7648e-4 0.005884,3.2454e-4 0.006564,3.0778e-4 0.0122457,-3.0205e-4 0.004162,-4.4664e-4 0.006133,-5.5727e-4 0.006395,-3.589e-4 3.8879e-4,2.9424e-4 0.001777,0.003183 0.0104306,0.0216975 0.002748,0.005879 0.005331,0.0112671 0.005741,0.0119726 l 0.003869,0.006842 c 0.003269,0.005816 0.005593,0.00919 0.008441,0.0122514 9.336e-4,0.001004 0.001804,0.002025 0.001934,0.00227 3.1818e-4,5.9854e-4 0.0024,5.4618e-4 0.003291,-8.278e-5 3.6408e-4,-2.5686e-4 0.001429,-6.7025e-4 0.002366,-9.1865e-4 9.3738e-4,-2.484e-4 0.00207,-6.3415e-4 0.002517,-8.5723e-4 4.4709e-4,-2.2307e-4 0.001413,-5.3681e-4 0.002147,-6.9719e-4 7.3388e-4,-1.6038e-4 0.001788,-5.3884e-4 0.002342,-8.4102e-4 5.5432e-4,-3.0218e-4 0.001416,-6.9144e-4 0.001915,-8.6503e-4 4.9889e-4,-1.7359e-4 0.001361,-5.5491e-4 0.001915,-8.4739e-4 0.001092,-5.7613e-4 0.00312,-0.001499 0.005039,-0.002293 6.6518e-4,-2.7516e-4 0.00198,-9.7853e-4 0.002923,-0.001563 9.4235e-4,-5.8452e-4 0.002202,-0.001304 0.0028,-0.001598 5.9782e-4,-2.9424e-4 0.001195,-6.6208e-4 0.001328,-8.1743e-4 1.3235e-4,-1.5535e-4 6.377e-4,-4.8056e-4 0.001123,-7.2269e-4 0.001804,-8.9996e-4 0.007888,-0.005367 0.008186,-0.00601 2.202e-4,-4.7528e-4 2.6869e-4,-0.001062 1.7881e-4,-0.002164 -6.783e-5,-8.3178e-4 -4.2e-4,-0.002488 -3.2891e-4,-0.002679 8.185e-5,-3.9886e-4 3.8223e-4,-1.3329e-4 5.0348e-4,-4.5169e-4 6.2233e-4,-0.001644 -8.38e-4,-0.0105008 -0.002568,-0.015724 l -0.001111,-0.00342 c -0.002493,-0.007833 -0.002936,-0.009064 -0.006123,-0.0169854 l -0.001597,-0.003991 c -0.001479,-0.003705 -0.002515,-0.006247 -0.005393,-0.0132313 -6.459e-4,-0.001568 -0.001382,-0.003245 -0.001636,-0.003728 -5.7337e-4,-0.00109 0.002317,-0.003136 0.004839,-0.005874 0.001053,-0.001143 0.003667,-0.004527 0.005809,-0.007521 0.004317,-0.006035 0.007044,-0.0105228 0.0110832,-0.0182405 4.3598e-4,-8.3301e-4 0.001196,-0.002559 0.003886,-0.008817 0.001357,-0.003158 0.002056,-0.003948 0.003178,-0.003592 4.2757e-4,1.3586e-4 0.001358,6.3544e-4 0.002068,0.00111 7.0964e-4,4.7474e-4 0.001402,8.6328e-4 0.001538,8.634e-4 1.3614e-4,1.1e-7 7.2574e-4,3.0684e-4 0.00131,6.8158e-4 0.001891,0.001213 0.003463,0.002153 0.004288,0.002566 0.001143,5.7232e-4 0.003361,0.001854 0.003786,0.002187 1.9742e-4,1.5516e-4 9.4576e-4,5.9923e-4 0.001663,9.8686e-4 l 0.002608,0.00141 c 7.1721e-4,3.8763e-4 0.001466,8.317e-4 0.001663,9.8686e-4 0.001355,0.001065 0.00975,0.004998 0.0119493,0.005598 3.8803e-4,1.0595e-4 0.001133,4.2956e-4 0.001656,7.1912e-4 0.001841,0.00102 0.005866,0.001826 0.00912,0.001826 0.003487,0 0.002933,5.3694e-4 0.004364,-0.004227 6.6473e-4,-0.002212 7.2903e-4,-0.003694 0.001001,-0.003593 8.29e-4,3.0658e-4 -1.1492e-4,8.906e-5 0.00106,-0.004712 3.2619e-4,-0.001333 7.6382e-4,-0.003193 9.7249e-4,-0.004133 l 7.7303e-4,-0.003421 c 5.1699e-4,-0.002246 0.001234,-0.005879 0.001547,-0.007839 1.3772e-4,-8.6231e-4 4.3951e-4,-0.00253 6.7068e-4,-0.003706 2.3116e-4,-0.001176 5.55e-4,-0.003164 7.1963e-4,-0.004418 l 5.9887e-4,-0.004418 c 7.8738e-4,-0.005621 0.001157,-0.009079 0.001438,-0.0134515 1.6791e-4,-0.002616 3.641e-4,-0.005095 4.126e-4,-0.005301 2.0045e-4,-8.5048e-4 -5.131e-4,-0.002207 -0.002205,-0.004636 -0.006113,-0.007803 -0.008637,-0.0118757 -0.0124782,-0.013895 -0.007197,-0.003783 -0.0129336,-0.007347 -0.0175466,-0.009896 -0.007643,-0.004223 -0.012749,-0.005553 -0.0162546,-0.0150054 -0.002517,-0.006787 -0.002432,-0.0302432 -0.003796,-0.0413728 -6.2738e-4,-0.005119 -0.003681,-0.0160617 -0.003681,-0.0160617 6.3325e-4,-0.002595 0.0212213,-0.0108707 0.030713,-0.0150485 7.959e-4,-0.0124779 -0.0107653,-0.0535583 -0.0144037,-0.0648794 l -0.002177,-0.004469 -0.001594,-0.003278 c -0.001007,-0.002149 -0.001321,-0.002397 -0.003956,-0.003115 -0.0021,-5.7223e-4 -0.002843,-6.4618e-4 -0.005105,-5.0835e-4 -0.001456,8.868e-5 -0.002965,3.0126e-4 -0.003353,4.7238e-4 -3.8803e-4,1.7109e-4 -0.001613,5.0533e-4 -0.002721,7.427e-4 -0.001109,2.3737e-4 -0.002379,5.701e-4 -0.002822,7.3934e-4 -4.4346e-4,1.6927e-4 -0.001668,5.3261e-4 -0.002721,8.0741e-4 -0.001053,2.748e-4 -0.002323,7.006e-4 -0.002822,9.4621e-4 -4.9889e-4,2.4561e-4 -0.00186,8.5068e-4 -0.003024,0.001345 -0.001164,4.9393e-4 -0.002937,0.001272 -0.00394,0.00173 -0.001003,4.5733e-4 -0.00198,8.315e-4 -0.002172,8.315e-4 -1.9188e-4,0 -8.6817e-4,2.6172e-4 -0.001503,5.8161e-4 -6.3469e-4,3.1987e-4 -0.001766,7.6705e-4 -0.002514,9.937e-4 -7.4815e-4,2.2666e-4 -0.001663,5.9105e-4 -0.002033,8.0978e-4 -3.7016e-4,2.1873e-4 -0.00141,6.2298e-4 -0.002312,8.9835e-4 -0.001531,4.6773e-4 -0.001672,4.6947e-4 -0.00215,2.651e-5 -2.8135e-4,-2.6069e-4 -0.002575,-0.00362 -0.005097,-0.007465 -0.004247,-0.006476 -0.0133898,-0.0173713 -0.017511,-0.022186 -0.003825,-0.004468 -0.0102093,-0.0115387 -0.0120196,-0.0133109 -0.006391,-0.006257 -0.007922,-0.007811 -0.008753,-0.008883 l -9.1901e-4,-0.001187 3.2514e-4,-0.001379 9.7841e-4,-0.004372 c 3.593e-4,-0.001646 8.6787e-4,-0.003891 0.00113,-0.004989 5.2149e-4,-0.002182 0.001439,-0.009189 0.002,-0.0152803 6.658e-4,-0.007225 0.001334,-0.0198713 2.6871e-4,-0.0242544 -2.0968e-4,-8.6232e-4 -3.9271e-4,-0.004895 -5.6571e-4,-0.005786 -5.1403e-4,-0.002634 -9.9656e-4,-0.003226 -0.004646,-0.005695 -7.5777e-4,-5.1257e-4 -9.8879e-4,-6.8264e-4 -0.001865,-0.001372 -1.9401e-4,-1.5282e-4 -6.7023e-4,-4.6653e-4 -0.001058,-6.9709e-4 -3.8803e-4,-2.3058e-4 -9.3227e-4,-6.1026e-4 -0.001209,-8.4375e-4 -2.7716e-4,-2.335e-4 -7.7605e-4,-6.0742e-4 -0.001109,-8.3096e-4 l -0.006652,-0.00471 c -0.003326,-0.002367 -0.006448,-0.004503 -0.006937,-0.004747 -4.8931e-4,-2.4395e-4 -9.882e-4,-5.5316e-4 -0.001109,-6.8711e-4 -1.2042e-4,-1.3395e-4 -7.1786e-4,-5.0394e-4 -0.001328,-8.2218e-4 -6.0976e-4,-3.1822e-4 -0.00188,-0.001051 -0.002822,-0.001629 -9.4235e-4,-5.7774e-4 -0.002122,-0.001253 -0.00262,-0.001501 -4.9889e-4,-2.4772e-4 -0.001105,-6.3147e-4 -0.001348,-8.5279e-4 -2.4252e-4,-2.2135e-4 -8.7747e-4,-5.7363e-4 -0.001411,-7.829e-4 -5.3354e-4,-2.0924e-4 -0.001424,-6.4122e-4 -0.001978,-9.5995e-4 -5.5432e-4,-3.187e-4 -0.001416,-7.6907e-4 -0.001915,-0.001001 -4.989e-4,-2.317e-4 -0.001678,-8.2377e-4 -0.00262,-0.001316 -0.00311,-0.001624 -0.003562,-0.001802 -0.004086,-0.001616 -7.9853e-4,2.8344e-4 -0.002693,0.001784 -0.003344,0.003517 -3.1489e-4,8.3777e-4 -0.001093,0.002293 -0.001729,0.003234 -6.3585e-4,9.4071e-4 -0.001568,0.00256 -0.002073,0.003598 -9.5551e-4,0.001968 -0.003206,0.007876 -0.003465,0.009096 -8.213e-5,3.8734e-4 -3.5834e-4,0.00141 -6.1381e-4,0.002272 -2.5546e-4,8.6232e-4 -7.532e-4,0.002979 -0.001106,0.004704 l -0.001125,0.005416 c -2.6567e-4,0.001254 -5.7716e-4,0.002902 -6.922e-4,0.003661 -1.1504e-4,7.5903e-4 -3.3478e-4,0.001805 -4.883e-4,0.002325 -1.5353e-4,5.1964e-4 -3.8716e-4,0.001695 -5.1917e-4,0.002611 -3.2228e-4,0.002237 -6.6007e-4,0.009235 -8.5007e-4,0.009505 -8.429e-5,1.1922e-4 -6.4795e-4,2.338e-5 -0.001253,-2.1302e-4 -6.0462e-4,-2.3638e-4 -0.00178,-6.2837e-4 -0.002611,-8.7104e-4 -8.3149e-4,-2.427e-4 -0.002464,-7.5701e-4 -0.003628,-0.001143 -0.001164,-3.8589e-4 -0.002933,-8.3059e-4 -0.003931,-9.8823e-4 -9.9778e-4,-1.5764e-4 -0.002585,-4.7346e-4 -0.003528,-7.018e-4 -9.4235e-4,-2.2833e-4 -0.002847,-5.5091e-4 -0.004233,-7.1687e-4 -0.001386,-1.6594e-4 -0.003058,-4.2144e-4 -0.003716,-5.6776e-4 -6.5791e-4,-1.4635e-4 -0.00787,-4.46e-5 -0.0115355,-2.2758e-4 -0.006248,-3.1189e-4 -0.006994,-2.9453e-4 -0.01192,2.7768e-4 -0.00289,3.3578e-4 -0.005545,6.1043e-4 -0.005899,6.1043e-4 -9.489e-4,0 -0.00277,-0.002337 -0.004917,-0.007243 -0.002393,-0.00547 -0.002595,-0.005926 -0.003528,-0.007982 l -0.001214,-0.002708 c -4.7139e-4,-0.001075 -0.004378,-0.009383 -0.006703,-0.0142531 -7.8579e-4,-0.001646 -0.002397,-0.002225 -0.004382,-0.005596 -0.003634,-0.00617 -0.006707,-0.0104647 -0.009431,-0.0131757 -6.7394e-4,-6.7095e-4 -0.001383,-0.001444 -0.001577,-0.001719 -4.494e-4,-6.3826e-4 -0.002012,-6.6323e-4 -0.002842,-4.542e-5 z m 0.0657282,0.0985639 c 4.9889e-4,1.5895e-4 0.002494,4.9487e-4 0.004435,7.4649e-4 0.00194,2.5163e-4 0.004253,6.9519e-4 0.00514,9.8572e-4 8.8692e-4,2.9054e-4 0.002066,6.1195e-4 0.00262,7.1426e-4 5.5433e-4,1.0228e-4 0.001643,4.2731e-4 0.002419,7.2223e-4 7.7605e-4,2.9493e-4 0.001865,6.1639e-4 0.002419,7.1434e-4 0.001002,1.7697e-4 0.003164,9.7731e-4 0.006249,0.002313 8.8692e-4,3.8401e-4 0.002111,8.7084e-4 0.002721,0.001082 6.0976e-4,2.11e-4 0.001517,5.848e-4 0.002016,8.3067e-4 4.9889e-4,2.4587e-4 0.001451,6.9436e-4 0.002117,9.9667e-4 6.6518e-4,3.023e-4 0.001844,8.9803e-4 0.00262,0.001324 0.001465,8.0387e-4 0.003903,0.002099 0.005644,0.002997 0.001092,5.638e-4 0.002338,0.00132 0.004233,0.002568 0.004961,0.003269 0.008538,0.005752 0.0102118,0.00709 l 0.00662,0.005323 c 0.002214,0.001787 0.0109341,0.0100522 0.01293,0.0122557 l 0.003628,0.003966 c 0.001148,0.001245 0.013842,0.0140477 0.0197181,0.020525 0.006172,0.006804 0.0192269,0.0202039 0.0264192,0.0426928 0.008217,0.025693 0.0115841,0.0615807 0.0111051,0.0748089 -8.984e-4,0.0248066 -0.006794,0.0464262 -0.00728,0.0483472 -0.001207,0.004761 -0.002077,0.007341 -0.004437,0.0131673 l -0.001051,0.002627 c -0.002463,0.005359 -0.007437,0.0119171 -0.010434,0.0168798 -6.743e-4,0.001116 -0.0024,0.002648 -0.003491,0.003919 -0.001091,0.001271 -0.002998,0.003173 -0.004238,0.004226 l -0.003491,0.002996 c -0.001716,0.001501 -0.003307,0.002663 -0.005314,0.003883 l -0.002721,0.001678 c -0.003159,0.001997 -0.004773,0.002841 -0.007357,0.003844 -7.2062e-4,2.7976e-4 -0.001718,7.1376e-4 -0.002217,9.6445e-4 -0.001962,9.8574e-4 -0.004409,0.001881 -0.005946,0.002175 -8.8691e-4,1.6984e-4 -0.002338,5.6312e-4 -0.003225,8.7395e-4 -8.8692e-4,3.1083e-4 -0.00388,9.1599e-4 -0.006652,0.001345 -0.004558,7.0527e-4 -0.005655,7.742e-4 -0.0114896,7.2223e-4 -0.005162,-4.595e-5 -0.007034,-1.7098e-4 -0.009373,-6.2599e-4 -0.001608,-3.1272e-4 -0.003966,-7.0653e-4 -0.005241,-8.7515e-4 -0.001275,-1.6861e-4 -0.003044,-5.5761e-4 -0.003931,-8.6448e-4 -8.8692e-4,-3.0684e-4 -0.001843,-5.5889e-4 -0.002126,-5.6012e-4 -2.8217e-4,0 -0.001371,-3.1034e-4 -0.002419,-6.8694e-4 -0.001048,-3.766e-4 -0.002359,-7.6579e-4 -0.002914,-8.6491e-4 -9.7297e-4,-1.7394e-4 -0.001985,-5.6964e-4 -0.006208,-0.002428 -0.001086,-4.7791e-4 -0.002095,-8.6893e-4 -0.002241,-8.6893e-4 -2.6407e-4,0 -0.003497,-0.001407 -0.004653,-0.002025 l -0.002116,-0.001118 -0.002923,-0.001569 c -7.7606e-4,-4.26e-4 -0.002001,-0.001064 -0.002721,-0.001419 -7.2062e-4,-3.5436e-4 -0.002217,-0.001247 -0.003326,-0.001984 -0.007011,-0.004659 -0.010977,-0.007416 -0.0118044,-0.008205 -3.8117e-4,-3.6357e-4 -0.001963,-0.00166 -0.003515,-0.00288 -0.003545,-0.002788 -0.003635,-0.002866 -0.007109,-0.006155 -0.001582,-0.001498 -0.003174,-0.002979 -0.003539,-0.003293 -0.00185,-0.00159 -0.004242,-0.004127 -0.0108164,-0.0114733 -0.004189,-0.004681 -0.010867,-0.0136323 -0.0168536,-0.0225917 -0.002134,-0.003193 -0.009135,-0.0152621 -0.0106036,-0.0182789 l -0.002347,-0.004811 c -0.002976,-0.006091 -0.004171,-0.008713 -0.005522,-0.0121152 l -0.0020782,-0.005131 c -0.0015656,-0.003804 -0.0026085,-0.006769 -0.0056658,-0.016106 -3.8503e-4,-0.001176 -8.3944e-4,-0.002523 -0.0010098,-0.002993 -1.7036e-4,-4.7035e-4 -4.7684e-4,-0.001561 -6.8107e-4,-0.002423 -2.0424e-4,-8.6232e-4 -6.5828e-4,-0.002658 -0.001009,-0.003991 -0.001438,-0.005464 -0.0018399,-0.007045 -0.0021019,-0.008267 -6.2568e-4,-0.002918 -0.0013177,-0.006512 -0.001537,-0.007982 -1.2868e-4,-8.6232e-4 -3.1727e-4,-0.001796 -4.1909e-4,-0.002075 -2.562e-4,-7.0171e-4 -0.0015024,-0.009345 -0.0016737,-0.0116081 -7.713e-5,-0.001019 -3.1875e-4,-0.003007 -5.3694e-4,-0.004418 -0.0010028,-0.006485 -0.0018491,-0.0285695 -8.7842e-4,-0.0349835 1.7023e-4,-0.001125 6.8681e-4,-0.004127 8.0772e-4,-0.00559 2.0427e-4,-0.00247 4.8983e-4,-0.004207 0.0017265,-0.0104975 l 7.5824e-4,-0.003991 c 1.5505e-4,-8.6232e-4 7.8136e-4,-0.002724 0.0011933,-0.004057 4.1195e-4,-0.001333 9.1076e-4,-0.003129 0.0011085,-0.003991 1.977e-4,-8.6231e-4 5.0607e-4,-0.001953 6.8527e-4,-0.002423 1.7919e-4,-4.7035e-4 6.7435e-4,-0.001285 6.7503e-4,-0.00177 8.1e-7,-5.1975e-4 1.6761e-4,-0.001095 4.0613e-4,-0.0014 2.2269e-4,-2.8501e-4 5.0873e-4,-0.001008 6.3565e-4,-0.001607 1.2692e-4,-5.9909e-4 3.9826e-4,-0.001304 6.0298e-4,-0.001566 2.0471e-4,-2.62e-4 3.7221e-4,-6.102e-4 3.7221e-4,-7.7377e-4 0,-3.3954e-4 0.0017748,-0.004171 0.0021323,-0.004603 1.2969e-4,-1.5679e-4 6.9537e-4,-0.001262 0.0012571,-0.002456 0.0017747,-0.003773 0.0072809,-0.0117153 0.01108973,-0.015996 0.0036,-0.004045 0.004278,-0.00475 0.005438,-0.005645 4.0929e-4,-3.1593e-4 0.001606,-0.001334 0.002659,-0.002261 0.002191,-0.00193 0.004755,-0.004 0.004954,-0.004 1.7779e-4,0 0.004377,-0.002633 0.006639,-0.004163 5.5592e-4,-3.7595e-4 0.001163,-6.8353e-4 0.001349,-6.8353e-4 1.8608e-4,0 9.5579e-4,-3.0573e-4 0.00171,-6.7939e-4 0.003566,-0.001766 0.008581,-0.003776 0.0100398,-0.004025 5.5433e-4,-9.447e-5 0.002051,-4.9062e-4 0.003326,-8.8031e-4 0.001275,-3.8968e-4 0.004495,-0.001017 0.007156,-0.001393 0.004304,-6.0921e-4 0.005582,-6.7295e-4 0.0115904,-5.7791e-4 0.003714,5.873e-5 0.007161,2.3683e-4 0.00766,3.9578e-4 z"
         id="path4258"
         inkscape:connector-curvature="0"
         sodipodi:nodetypes="cccccccccsccccscscccccccccccccsccccccccccccccssccccccccscscscccccsscccccsccccccccssccccsccccscsccccccscsccccccccccccscccccccccccccccccccccscccscccccccccccccccccccccccccccccscsccccccccccccsccccccccccccsssscccccsccccscccsccccccccccccccscccccccccccccccccscccccccsccccccccccscscccscccccccccscsccccccccccssscccsscccccccccscsscscssccccccccccccccccccccccsscccccccccccscccccscsccscscc"
         transform="matrix(1488.3,0,0,-1052.4,0,1052.4)" /></g><g
       inkscape:groupmode="layer"
       id="layer5"
       inkscape:label="intech rouage noir"
       style="display:inline;opacity:1"><path
         style="display:inline;fill:#000000"
         d="m 158.0067,788.18844 c -0.58497,-0.30933 -1.93479,-0.71551 -3.00041,-0.90261 -1.06503,-0.18711 -3.15073,-0.65824 -4.63605,-1.04697 -1.485,-0.38872 -3.57743,-0.93108 -4.65005,-1.205 -3.99192,-1.02051 -6.18433,-1.69752 -11.39993,-3.52238 -0.90751,-0.31738 -2.52743,-0.822 -3.60005,-1.12186 -1.9202,-0.53601 -5.28763,-1.88695 -7.04993,-2.82885 -0.49499,-0.26443 -1.00975,-0.48162 -1.14389,-0.48261 -0.22768,-0.003 -2.20938,-0.87528 -5.75615,-2.53734 -0.82499,-0.38661 -2.64754,-1.20184 -4.04996,-1.81118 -2.75976,-1.19868 -5.58113,-2.46893 -6.29997,-2.83622 -0.31646,-0.16165 -0.47633,-0.82152 -0.53871,-2.22372 -0.0832,-1.87011 -0.0486,-1.99324 0.55915,-1.99324 0.35632,0 1.13875,0.2609 1.73864,0.57977 0.59996,0.3189 2.2384,1.06714 3.64083,1.6628 1.40249,0.59571 3.09,1.34181 3.74992,1.65753 0.66,0.31578 2.27992,1.03179 3.60004,1.59122 1.32001,0.55939 3.22694,1.37549 4.23749,1.81329 1.01063,0.43772 2.04314,0.79587 2.29451,0.79587 0.25135,0 1.58445,0.39056 2.96247,0.86792 1.37803,0.47737 3.92301,1.30603 5.65554,1.8417 1.73253,0.53574 4.11768,1.29235 5.30043,1.68174 1.18272,0.38936 2.46819,0.70797 2.85649,0.70797 0.38836,0 1.64815,0.27047 2.79964,0.60104 1.15143,0.33061 3.30849,0.86721 4.79352,1.19237 1.48501,0.32524 3.26533,0.75534 3.9559,0.95575 1.19272,0.3461 1.33364,0.31595 2.80842,-0.60111 10.09961,-6.27862 21.15634,-19.80059 37.32463,-45.64816 0.36124,-0.5775 0.9923,-1.59018 1.40234,-2.25004 0.41005,-0.66 1.22353,-1.94273 1.80828,-2.84989 0.58422,-0.90751 1.45337,-2.31423 1.93182,-3.12669 0.47808,-0.81195 1.37862,-2.01218 2.00176,-2.66678 l 1.13197,-1.19131 3.36802,0.19731 c 1.85294,0.1085 6.0678,0.40715 9.36736,0.66362 5.44718,0.42334 6.93995,0.42235 16.2,-0.0108 11.17713,-0.52278 15.47758,-0.86023 19.34998,-1.51757 1.4025,-0.23826 4.37263,-0.63495 6.60061,-0.88149 2.22799,-0.24657 4.72536,-0.64731 5.54988,-0.89058 0.825,-0.24327 2.71465,-0.65127 4.19998,-0.90668 1.48499,-0.2554 3.17305,-0.60573 3.75051,-0.77847 2.36045,-0.70596 9.54918,-2.43309 10.05372,-2.16262 0.55297,0.29592 2.09255,4.79368 2.09255,6.11445 0,0.60932 -0.14842,0.78158 -0.67499,0.78335 -0.37126,0 -3.79839,1.24812 -4.87145,1.5772 -1.0725,0.32906 -3.28319,0.81261 -4.91288,1.0745 -1.62969,0.2619 -3.50644,0.66764 -4.16873,0.90167 -0.66329,0.234 -2.97511,0.63045 -5.13612,0.88095 -2.1625,0.25048 -5.07808,0.64719 -6.48006,0.88153 -1.4025,0.23436 -4.30565,0.57917 -6.45029,0.76625 -13.52121,1.17974 -23.99661,1.44284 -31.65004,0.79596 -3.05251,-0.258 -6.80153,-0.55896 -8.33151,-0.66882 l -2.78163,-0.1998 -1.26793,1.32287 c -0.69735,0.7275 -1.60587,1.90695 -2.01813,2.62047 -0.79452,1.37444 -1.6282,2.71835 -4.04074,6.52278 -0.81993,1.29235 -2.14761,3.42977 -2.9513,4.74948 -0.80342,1.31971 -4.22677,6.53961 -7.60818,11.59945 -9.18877,13.75171 -17.47175,23.41874 -24.67647,28.79829 -1.25054,0.93372 -2.69679,2.04797 -3.21472,2.47525 -1.11096,0.91748 -2.23543,0.97439 -3.72224,0.18833 z m 147.11548,-12.27551 c -2.18185,-1.75014 -5.50224,-5.59351 -5.50224,-6.37018 0,-0.11879 0.52881,0.0737 1.17511,0.42772 1.42273,0.7793 0.89206,0.91503 11.42419,-2.92252 1.0725,-0.39074 2.62537,-0.93548 3.44988,-1.21026 0.82501,-0.27501 2.21162,-0.82866 3.08227,-1.23025 0.86989,-0.40167 1.75322,-0.73032 1.96158,-0.73032 0.20896,0 0.91474,-0.28126 1.56867,-0.62499 0.65365,-0.34378 1.86335,-0.87306 2.68787,-1.17659 0.82501,-0.30317 2.64769,-1.04852 4.04967,-1.65647 1.40249,-0.6078 3.22514,-1.37339 4.04966,-1.69963 1.36794,-0.54267 5.13166,-2.40684 25.73553,-12.74835 3.75945,-1.88696 7.30012,-3.83811 7.86716,-4.33694 0.72513,-0.63666 1.17779,-1.41127 1.52253,-2.6068 0.27013,-0.93534 0.74287,-2.44788 1.05055,-3.36242 1.54187,-4.57688 2.59261,-21.69785 1.64903,-26.83914 -0.24243,-1.31971 -0.58887,-3.68235 -0.7699,-5.24937 -0.18103,-1.56703 -0.45353,-3.32243 -0.60557,-3.9002 -0.15202,-0.5775 -0.42573,-2.0627 -0.60825,-3.30032 -0.29475,-1.99851 -0.75576,-3.65499 -2.54648,-9.14957 -1.8321,-5.62508 -2.10893,-6.93426 -1.64458,-7.80039 0.21039,-0.39309 1.47762,-1.46284 2.81587,-2.37737 1.33844,-0.91437 3.58085,-2.46893 4.98283,-3.45503 1.4025,-0.9858 3.67461,-2.57417 5.0498,-3.52975 1.37528,-0.95561 2.79056,-1.93957 3.14478,-2.18794 0.35429,-0.2475 4.39197,-3.44135 8.97444,-7.09633 10.80506,-8.62232 23.30782,-20.11179 31.04713,-28.53151 6.68842,-7.2763 8.53689,-9.07169 9.3376,-9.07169 0.56176,0 3.08524,0.64428 9.64567,2.46261 6.71074,1.8596 8.36425,2.33844 11.69953,3.38452 1.89758,0.59526 4.39495,1.3355 5.54987,1.6449 1.15499,0.30958 2.57178,0.75915 3.15073,0.99907 0.57749,0.23994 1.86037,0.52857 2.85009,0.64146 0.99,0.11286 2.87986,0.45479 4.19998,0.75981 7.31946,1.69121 15.13572,2.39 18.78027,1.67963 1.22082,-0.23807 2.88581,-0.52122 3.69842,-0.62913 1.75024,-0.23226 2.18185,-0.63693 4.97092,-4.6716 l 1.94968,-2.82148 -0.008,-3.33927 c -0.005,-2.20162 -0.15931,-4.2487 -0.40424,-4.54337 -0.3129,-0.37705 4.14691,-1.88967 8.97386,2.29756 3.06025,2.65467 2.51301,0.90118 1.96163,1.76737 -1.23842,1.94553 -5.46463,10.2935 -7.17889,12.80568 -3.10757,4.55478 -3.47072,4.85893 -6.49494,5.4409 -1.4025,0.26993 -4.22082,0.55695 -6.26426,0.63783 -3.85618,0.1527 -6.67204,-0.20358 -13.98704,-1.77013 -1.65052,-0.35335 -4.01246,-0.80185 -5.25072,-0.99669 -1.23751,-0.19485 -3.12692,-0.64149 -4.19998,-0.99255 -4.47532,-1.46494 -5.94279,-1.91326 -7.64987,-2.33738 -0.99,-0.24597 -2.47504,-0.70217 -3.29956,-1.01382 -0.82501,-0.3116 -2.30984,-0.76899 -3.29956,-1.01633 -3.62252,-0.90511 -5.74186,-1.47863 -7.61563,-2.05955 -3.73563,-1.15869 -6.59763,-1.73015 -7.31053,-1.45863 -0.85032,0.32331 -1.28793,0.76584 -8.57707,8.67388 -10.74702,11.65796 -30.67253,29.15106 -43.31325,38.02437 -2.09999,1.47442 -5.63917,3.95071 -7.86418,5.50511 -2.22501,1.55334 -4.48574,3.27717 -5.02152,3.82968 -0.92827,0.95776 -0.95575,1.05138 -0.57967,1.97536 0.21718,0.53343 0.59107,1.76803 0.83091,2.74255 0.23985,0.97509 0.63159,2.15111 0.87058,2.61311 0.23897,0.46212 0.63413,1.70068 0.87812,2.75308 0.244,1.05207 0.70428,2.50892 1.02288,3.23718 0.31863,0.72822 0.67188,2.13427 0.78504,3.12352 0.11314,0.99001 0.45129,2.94778 0.75141,4.34957 0.30014,1.40285 0.63823,3.49502 0.75126,4.64951 0.11307,1.15448 0.36684,3.2477 0.56396,4.6495 0.25205,1.79329 0.29527,4.81999 0.14566,10.19986 -0.24321,8.74439 -0.58137,11.93653 -1.66838,15.75001 -1.40543,4.92944 -1.60885,5.44722 -2.44528,6.2502 -0.82547,0.79087 -31.63218,16.39124 -33.64942,17.03983 -0.5792,0.18624 -1.20281,0.45675 -1.38575,0.60111 -0.18298,0.14439 -1.06048,0.51315 -1.94968,0.81952 -0.88955,0.30633 -2.15506,0.8456 -2.81288,1.19868 -0.65755,0.35276 -1.38168,0.64139 -1.60886,0.64139 -0.22748,0 -0.9045,0.26268 -1.50467,0.58375 -1.39416,0.746 -4.52145,2.01324 -6.64079,2.69099 -0.90751,0.2903 -2.05534,0.73245 -2.54946,0.9825 -0.49499,0.25008 -1.57462,0.61818 -2.40063,0.81804 -0.82499,0.19986 -1.79191,0.55196 -2.14762,0.78249 -0.35592,0.23052 -1.30092,0.58247 -2.09999,0.78215 -0.79903,0.19968 -2.12827,0.67597 -2.95278,1.05872 -2.17441,1.00794 -3.12692,0.91689 -4.8474,-0.4632 z M 125.47025,697.35285 c -3.95055,-2.99197 -15.91767,-14.96502 -17.01715,-17.02552 -0.31856,-0.59699 -0.31658,-0.59706 0.39849,-0.0132 0.39527,0.32286 2.27115,2.10795 4.16858,3.96754 1.89744,1.85959 5.13746,4.66634 7.19995,6.23863 2.06249,1.57229 4.93431,3.75812 6.38198,4.85788 2.67001,2.02903 3.32635,2.99513 2.61479,3.85284 -0.20362,0.24533 -0.45495,0.4343 -0.55849,0.41987 -0.10356,-0.0144 -1.53831,-1.04865 -3.18824,-2.29844 z M 23.843186,677.15217 c -0.670539,-0.39052 -1.510625,-2.05113 -2.134818,-4.22118 -0.268415,-0.93291 -0.488028,-1.77645 -0.488028,-1.87538 0,-0.0984 0.708743,-0.17937 1.575068,-0.18005 2.311478,-0.003 11.54772,-1.4018 13.763649,-2.08586 1.051246,-0.32472 2.788777,-0.78056 3.861395,-1.01304 1.859779,-0.40313 5.185535,-1.28603 8.099924,-2.149 0.742498,-0.22004 2.429947,-0.82836 3.74992,-1.35128 1.320003,-0.52344 3.209966,-1.26288 4.199983,-1.6428 0.989987,-0.38025 2.880009,-1.12501 4.199983,-1.65542 1.319998,-0.53011 3.074978,-1.20605 3.899938,-1.50283 1.52045,-0.54645 3.98969,-1.65332 9.14992,-4.10331 1.56748,-0.74406 3.99743,-1.89642 5.4,-2.56154 1.4025,-0.66454 3.48694,-1.66384 4.63204,-2.22056 1.14509,-0.55681 2.928484,-1.35762 3.118994,-1.35762 0.50678,0 1.10092,0.75066 2.82658,3.5708 1.59709,2.60995 1.8117,3.69918 0.7629,3.87072 -0.33,0.0539 -2.370534,0.9601 -3.690504,1.59131 -3.89175,1.86275 -8.83633,4.19698 -11.25006,5.31252 -1.23749,0.57177 -2.51999,1.18921 -2.84994,1.37233 -0.33,0.18273 -1.4775,0.65788 -2.55006,1.05556 -4.94517,1.83538 -5.59303,2.08796 -6.24862,2.44156 -0.38421,0.20694 -1.32922,0.56451 -2.1,0.79464 -0.77079,0.2301 -1.936274,0.69218 -2.589935,1.02681 -0.653631,0.33465 -1.370754,0.60846 -1.593523,0.60846 -0.222828,0 -1.121166,0.33873 -1.996256,0.75273 -0.875136,0.41403 -2.385597,0.89922 -3.356415,1.07871 -0.970892,0.17905 -2.211465,0.5115 -2.756629,0.73882 -0.545283,0.22734 -2.030339,0.61134 -3.300007,0.85335 -1.269699,0.24201 -2.79726,0.6453 -3.394515,0.89616 -0.597314,0.25088 -3.428746,0.86666 -6.292086,1.36812 -5.431254,0.95171 -11.53626,1.23551 -12.648913,0.58707 z M 135.89686,629.12505 c -0.21202,-0.25548 -0.31799,-0.53199 -0.2355,-0.61449 0.0825,-0.0825 0.32347,0.059 0.53551,0.31449 0.21202,0.25548 0.31799,0.53199 0.23549,0.61449 -0.0825,0.0825 -0.32348,-0.059 -0.5355,-0.31449 z m -1.64234,-2.53523 c -0.25173,-0.48681 -0.4577,-1.04334 -0.4577,-1.23657 0,-0.61107 0.82189,0.26613 1.16111,1.23972 0.40278,1.15554 -0.10556,1.15343 -0.70341,-0.003 z m -1.30861,-1.73478 c -0.37006,-0.47046 -0.67284,-0.99318 -0.67284,-1.16185 0,-0.16841 -0.31146,-0.72396 -0.69215,-1.23446 -0.84973,-1.13975 -2.09062,-3.52554 -2.93374,-5.64192 -1.04194,-2.61521 -2.37458,-5.94817 -3.33275,-8.33711 -0.49648,-1.23763 -1.04142,-2.78992 -1.21097,-3.44977 -0.16955,-0.65999 -0.6804,-2.54997 -1.13521,-4.20013 -1.74266,-6.32177 -2.37503,-9.11484 -2.81899,-12.45 -0.2526,-1.89747 -0.65481,-4.52953 -0.8938,-5.85029 -1.11118,-6.13759 -0.8383,-28.9471 0.41988,-35.09996 0.30367,-1.48493 0.64579,-3.57711 0.76027,-4.6495 0.28058,-2.6289 1.8059,-10.08936 2.66792,-13.04997 1.33761,-4.59373 2.04909,-7.20999 2.40629,-8.84963 0.19769,-0.9075 0.5401,-1.98693 0.76089,-2.39842 0.2208,-0.41133 0.64227,-1.49125 0.93662,-2.40053 0.29432,-0.90864 1.02963,-3.00249 1.634,-4.65161 0.60438,-1.65016 1.35459,-3.74233 1.66719,-4.6495 0.31256,-0.9075 0.76044,-2.05534 0.99529,-2.54996 0.45165,-0.95196 1.85278,-3.96019 4.25937,-9.14536 2.04194,-4.39903 3.62579,-7.46783 5.6536,-10.95454 0.95976,-1.65016 2.44052,-4.21486 3.29063,-5.6998 0.8501,-1.48493 1.80888,-3.15299 2.13065,-3.7076 0.32174,-0.55411 1.73253,-2.67941 3.13496,-4.72317 1.4025,-2.04376 3.29212,-4.80947 4.19998,-6.14602 2.53755,-3.73812 5.22542,-7.28892 8.38062,-11.07272 1.58206,-1.89748 3.68354,-4.46217 4.66879,-5.6998 3.67908,-4.61793 12.74408,-14.97344 20.32355,-21.85729 5.60047,-5.08625 7.97133,-7.07423 13.04941,-10.93844 1.4025,-1.06713 3.22515,-2.49839 4.04967,-3.1793 1.6282,-1.34496 3.45434,-2.61205 11.69952,-8.11505 5.98743,-3.99596 6.82088,-4.50848 12.90059,-7.92984 1.48499,-0.83574 3.49601,-1.98587 4.46936,-2.55628 2.09851,-1.2292 4.834,-2.63626 8.13058,-4.18118 1.32001,-0.6189 3.75052,-1.76803 5.39956,-2.55523 4.59289,-2.18899 9.4894,-4.22538 12.24275,-5.09256 0.95838,-0.30189 1.90354,-0.67722 2.09999,-0.83401 0.19662,-0.1568 1.03248,-0.49019 1.8574,-0.74084 0.825,-0.25065 2.17441,-0.7339 3.00042,-1.07345 0.82499,-0.33999 2.91706,-1.03596 4.64944,-1.54703 4.65541,-1.37233 7.66028,-2.27739 10.34964,-3.11826 1.32001,-0.41238 3.3457,-0.89583 4.50062,-1.0745 1.155,-0.17847 2.77717,-0.51759 3.60615,-0.75357 0.82854,-0.236 2.7861,-0.63735 4.3503,-0.89187 1.56421,-0.25454 3.49751,-0.66216 4.29673,-0.90585 0.79951,-0.24366 3.09417,-0.57693 5.1004,-0.74058 2.00474,-0.16365 5.4695,-0.55878 7.696,-0.87807 5.00515,-0.71736 18.03968,-1.05345 24.3084,-0.62742 7.57396,0.51513 15.17426,1.47757 18.89159,2.39316 1.23749,0.30471 3.05995,0.64185 4.04966,0.74921 0.99001,0.10735 2.87987,0.52525 4.19999,0.92865 5.11082,1.56176 8.49373,2.60575 10.80059,3.3319 2.23543,0.70397 5.57517,2.04797 8.39997,3.38031 2.97064,1.40074 5.22691,2.40789 5.39508,2.40789 0.28059,0 4.17766,2.23004 7.35518,4.2096 1.56718,0.97647 3.39035,2.06797 4.04967,2.42473 1.31445,0.71157 3.37397,2.25319 9.30038,6.95742 2.57774,2.04586 5.40997,4.71475 8.35085,7.86669 5.21054,5.58508 6.82981,7.99297 2.71169,4.03174 -1.464,-1.40811 -3.51983,-3.23087 -4.57057,-4.04963 -1.04952,-0.81942 -3.14329,-2.50261 -4.65243,-3.74023 -2.84712,-2.33528 -5.3936,-4.20013 -5.73442,-4.20013 -0.1083,0 -0.78555,-0.40501 -1.50467,-0.9 -0.71946,-0.495 -1.38791,-0.90001 -1.48547,-0.90001 -0.0976,0 -0.74823,-0.36041 -1.44594,-0.8009 -4.15087,-2.62048 -6.38928,-3.91809 -7.16766,-4.15698 -0.70026,-0.21426 -3.24598,-1.34076 -6.13031,-2.71414 -0.84149,-0.4005 -1.6535,-0.72816 -1.80381,-0.72816 -0.15096,0 -0.79023,-0.27642 -1.4206,-0.61428 -1.22027,-0.65403 -5.65852,-2.21004 -8.14547,-2.85517 -0.82501,-0.21414 -2.30984,-0.66711 -3.29956,-1.00662 -3.78623,-1.29866 -6.67056,-2.0627 -8.55028,-2.26581 -1.0725,-0.11557 -2.97511,-0.46603 -4.22826,-0.77878 -2.77568,-0.69285 -4.69112,-0.96897 -12.42135,-1.79118 -8.27198,-0.87945 -23.73407,-0.87642 -29.14583,0.006 -1.95414,0.31862 -5.37723,0.72386 -7.60372,0.90053 -2.22799,0.17667 -4.99474,0.57396 -6.14966,0.88287 -1.15501,0.30891 -2.84265,0.65439 -3.75052,0.76776 -0.90749,0.11338 -2.92599,0.53196 -4.48573,0.93021 -1.55974,0.39825 -3.22366,0.72408 -3.69694,0.72408 -0.47335,0 -1.82912,0.3222 -3.01381,0.71601 -1.18409,0.39378 -2.62536,0.8091 -3.20282,0.92289 -0.5775,0.11379 -2.06278,0.53136 -3.29956,0.9279 -1.23751,0.39654 -3.66717,1.13765 -5.39955,1.64596 -1.73238,0.50865 -3.82493,1.19868 -4.64945,1.53334 -0.825,0.3348 -2.12678,0.78294 -2.89326,0.99591 -0.76661,0.21297 -1.77852,0.60267 -2.25031,0.86598 -0.47089,0.26331 -1.66689,0.76437 -2.65661,1.11344 -0.99,0.34908 -2.69531,0.94875 -3.7907,1.33234 -1.09485,0.38388 -2.24287,0.8385 -2.54946,1.01028 -0.30765,0.17178 -1.74131,0.85761 -3.18496,1.52388 -8.99082,4.14961 -12.93482,6.11339 -17.02496,8.47603 -1.73238,1.0008 -3.75796,2.14479 -4.50062,2.54154 -4.29077,2.29318 -16.87545,11.19354 -20.96515,14.34 -10.47019,8.05612 -15.86573,12.5906 -23.65832,19.88415 -2.7727,2.59522 -13.44976,13.77424 -15.20328,15.91745 -0.8098,0.98999 -3.02869,3.68971 -4.92925,5.99973 -4.10622,4.98943 -6.79706,8.49603 -8.82859,11.50621 -1.69071,2.50576 -3.91423,5.74926 -5.71508,8.3329 -0.67434,0.96822 -1.79935,2.77307 -2.50034,4.0107 -0.70121,1.23762 -2.06129,3.60026 -3.02259,5.25042 -2.21384,3.80022 -5.70034,10.0441 -5.70034,10.20828 0,0.0688 -0.62245,1.44494 -1.38321,3.05827 -1.47827,3.1351 -3.24449,6.90901 -4.60137,9.83363 -0.45941,0.99 -0.93125,2.20478 -1.04853,2.70046 -0.11727,0.49499 -0.4028,1.30497 -0.6345,1.7996 -0.40119,0.85711 -0.64411,1.51335 -2.49811,6.75009 -0.43815,1.23763 -0.96182,2.54366 -1.16371,2.90147 -0.2019,0.3586 -0.5124,1.37128 -0.69003,2.25003 -0.17763,0.87891 -0.58438,2.40789 -0.90388,3.3982 -1.39708,4.32852 -3.79263,14.75854 -4.18435,18.21799 -0.17327,1.53019 -0.52357,3.58658 -0.77843,4.57058 -1.54307,5.95658 -1.64531,31.69892 -0.15433,38.86134 0.32629,1.56702 0.73926,4.16435 0.9177,5.77136 0.17844,1.60702 0.53955,3.45924 0.80244,4.11594 0.26291,0.65705 0.72936,2.24477 1.03654,3.5287 1.16497,4.8684 2.04895,7.92246 2.65573,9.17587 0.3454,0.71352 0.628,1.46178 0.628,1.66279 0,0.20087 0.3375,1.03128 0.75,1.84486 0.4125,0.81402 0.75,1.63017 0.75,1.81434 0,0.18407 0.41337,1.27656 0.91859,2.42788 1.07932,2.45946 1.1063,3.56975 0.0542,2.23215 z M 539.67274,457.47983 c 7.58632,-4.65655 15.61879,-11.03684 20.00778,-15.56427 2.79619,-2.88357 3.16714,-3.50659 2.91112,-4.88734 -0.0918,-0.49568 -0.30263,-2.56891 -0.46859,-4.60951 -0.32743,-4.01638 -1.37177,-10.75248 -2.5197,-16.24075 -0.39684,-1.89747 -0.92863,-4.46217 -1.18178,-5.6998 -0.61913,-3.02144 -1.30155,-5.68822 -2.15208,-8.40025 -0.38811,-1.23762 -0.79324,-2.72283 -0.9003,-3.30033 -0.23813,-1.28814 -1.81394,-6.26178 -2.56583,-8.10032 -0.3036,-0.743 -0.76265,-2.0929 -1.02011,-3.00039 -0.25749,-0.90822 -0.83808,-2.39283 -1.29021,-3.30033 -0.66195,-1.32768 -0.98371,-1.66848 -1.64755,-1.74488 -1.09235,-0.12629 -1.07183,0.18207 0.27273,4.09805 0.60376,1.7575 1.26135,3.9388 1.46133,4.8463 0.35422,1.60912 0.998,3.98018 2.40361,8.84963 0.381,1.31971 0.77932,3.07519 0.88509,3.90019 0.10582,0.82509 0.51099,2.98461 0.90045,4.8 1.00517,4.68613 1.89098,10.01022 2.24585,13.49998 0.16779,1.65016 0.44844,4.24117 0.62367,5.75768 0.25557,2.21214 0.23859,2.91063 -0.0858,3.52975 -1.11176,2.12216 -9.20216,9.37741 -13.88286,12.45042 -0.98972,0.65038 -3.41271,2.15892 -3.86535,2.50907 z m -56.90252,88.91732 c -1.65945,-0.40275 -4.60628,-1.92063 -4.74321,-2.44262 -0.0744,-0.2845 0.12657,-1.23973 0.44661,-2.12269 0.32006,-0.88279 0.90483,-2.54997 1.29948,-3.7055 0.74342,-2.17531 0.90019,-4.49319 1.71132,-6.58115 0.25649,-0.66 3.37255,-10.90016 3.37978,-11.44636 0.0186,-1.41232 1.00318,7.60316 1.41563,9.46665 1.2216,5.51983 2.14197,19.40331 0.90025,19.28902 -0.18345,-0.0168 -3.91503,-2.33867 -4.41004,-2.45879 z M 82.25264,505.13223 c -0.32029,-0.24483 -1.12233,-0.5859 -1.78239,-0.75795 -0.66,-0.17206 -1.94253,-0.63003 -2.84995,-1.01775 -1.56346,-0.66795 -3.24241,-1.35549 -6.29997,-2.57944 -0.7425,-0.29732 -2.49752,-1.04256 -3.89994,-1.65647 -1.4025,-0.61353 -3.15743,-1.32392 -3.89995,-1.5786 -0.74249,-0.25443 -1.68743,-0.69522 -2.09999,-0.97956 -0.41249,-0.28434 -1.2225,-0.73752 -1.799946,-1.00704 -0.57749,-0.26952 -1.792508,-0.9534 -2.700074,-1.51966 -0.907491,-0.56635 -2.257453,-1.37549 -2.999966,-1.79855 -5.68992,-3.2414 -9.638975,-6.40491 -11.562752,-9.26218 -0.57045,-0.84704 -1.037166,-1.63437 -1.037166,-1.75119 0,-0.11589 0.843747,0.31982 1.87496,0.96825 1.031258,0.64841 2.482485,1.52282 3.224997,1.94378 0.742498,0.42043 2.632506,1.51967 4.199983,2.44157 5.739778,3.3782 6.477975,3.77812 7.950052,4.30958 0.82501,0.29784 2.647532,1.03752 4.049962,1.64385 5.57979,2.4121 9.93366,4.17382 12.00001,4.85577 0.7425,0.2451 2.10937,0.77061 3.03748,1.16816 0.92813,0.39718 1.87689,0.72217 2.10847,0.72217 0.7611,0 4.76196,2.07113 4.95068,2.56365 0.35047,0.91331 -0.90436,3.73602 -1.66079,3.73602 -0.12169,0 -0.48328,-0.2003 -0.80358,-0.44514 z M 437.73708,351.18884 c -2.01069,-1.35865 -3.97823,-3.11721 -4.17319,-3.72865 -0.11874,-0.37413 0.16194,-1.21342 0.77235,-2.31002 0.52736,-0.94724 1.26023,-2.26266 1.6282,-2.92251 0.36831,-0.66 1.11294,-1.94273 1.65499,-2.8499 0.54177,-0.90751 1.28421,-2.19005 1.65052,-2.8499 0.86808,-1.56702 3.81452,-6.71852 6.00529,-10.4998 0.95584,-1.65016 2.03898,-3.54027 2.40659,-4.20012 0.36786,-0.66001 1.4693,-2.61732 2.44825,-4.34957 0.97836,-1.73225 1.92884,-3.4203 2.11339,-3.7497 0.36945,-0.66211 2.5941,-5.46827 4.85929,-10.4998 0.51999,-1.15448 1.1928,-2.57206 1.49575,-3.14983 0.81372,-1.5544 2.29495,-6.06604 3.02869,-9.22218 0.35418,-1.52493 0.73806,-2.83096 0.85308,-2.90147 0.36234,-0.22394 4.45894,1.87643 4.6554,2.38579 0.35389,0.9222 0.14523,2.99829 -0.69223,6.88796 -0.91622,4.2559 -1.70559,6.75009 -3.08226,9.75049 -0.49248,1.07239 -1.13979,2.48997 -1.43848,3.14983 -0.6465,1.42916 -1.9839,4.33694 -3.26979,7.1058 -0.5119,1.10292 -0.93073,2.09638 -0.93073,2.20689 0,0.19983 -1.05222,2.08059 -4.35625,7.7867 -0.95522,1.65017 -2.03599,3.54028 -2.4036,4.20013 -0.36654,0.66 -1.17322,2.07744 -1.79192,3.14983 -0.61937,1.0724 -1.41245,2.45104 -1.76214,3.06459 -1.8827,3.29612 -4.13897,7.24683 -5.27603,9.23587 -1.27488,2.23003 -3.05845,5.09993 -3.17008,5.09993 -0.0317,0 -0.5827,-0.35487 -1.22448,-0.78861 z M 285.03526,326.92071 c -0.37812,-0.48072 -0.7749,-1.8217 -1.08771,-3.67498 -0.27084,-1.60491 -0.74766,-3.99807 -1.05958,-5.31778 -0.31193,-1.31971 -0.71328,-3.34452 -0.89189,-4.50006 -0.30455,-1.96904 -0.77813,-3.74339 -2.56285,-9.59999 -0.40231,-1.31971 -0.81766,-2.80465 -0.923,-3.30033 -0.3556,-1.67121 -1.99432,-6.59223 -2.55988,-7.69094 -0.30931,-0.59997 -0.56237,-1.39759 -0.56237,-1.77119 0,-0.66164 0.0167,-0.66548 0.6,-0.13765 0.33,0.29865 0.59999,0.69834 0.59999,0.88821 0,0.18988 0.32446,0.785 0.72102,1.32287 0.39656,0.5375 1.12783,1.81223 1.62522,2.83306 2.4423,5.01469 2.6968,5.70296 4.43514,12.01315 0.4026,1.46178 0.86323,2.90252 1.02361,3.20245 0.16038,0.29967 0.43839,1.26393 0.61783,2.14269 0.17943,0.8789 0.57269,2.27844 0.8739,3.10984 0.30124,0.83148 0.63457,2.18162 0.74076,3.00039 0.10619,0.81853 0.47502,2.79307 0.81961,4.38851 0.3446,1.59544 0.54449,3.11405 0.4442,3.37505 -0.30554,0.79623 -2.14762,0.61437 -2.85308,-0.28158 z"
         id="path4254-2"
         inkscape:connector-curvature="0"
         sodipodi:nodetypes="ccccccccsccsssccscssccsccccscccccccsccccccsccsccccscccccccsccccsscccsccccsccccscscccccccsscccccscccccccsccccccscccccccccccccccccscccsccsccccccccccscsscccccccscccccccccccscccccccccssccssccccccsccsccccscccccsccccccccccccsccccccccccccccccccccccccccccsccscccccccscscccsscccccscccssccccccccccccccccccccssccccccccsccscccscsccccccccccccccccccccsccccccccccccccccccccccccccscccccccscscccccccccccccccccccccscccccsccccsccccscscccccscsccc" /></g></g><g
     inkscape:groupmode="layer"
     id="layer8"
     inkscape:label="intech"
     style="display:inline"><g
       style="display:inline"
       inkscape:groupmode="layer"
       id="g4495"
       inkscape:label="h"><g
         inkscape:groupmode="layer"
         id="g4497"
         inkscape:label="intech cyan"
         style="display:inline"><path
           transform="matrix(1488.3,0,0,-1052.4,0,1052.4)"
           style="fill:#97a6cd"
           d="m 0.823533,0.41028219 5.4573e-4,0.002042 c -2.2189e-4,5.0775e-4 -0.004222,-1.9015e-4 -0.005393,-3.1978e-4 -8.8803e-4,-9.838e-5 -0.001317,-1.853e-5 -0.001613,2.9997e-4 -3.7128e-4,3.9963e-4 -3.7924e-4,4.9187e-4 -1.0079e-4,0.001167 2.4967e-4,6.0516e-4 0.004963,0.0101001 0.007903,0.0159213 8.8037e-4,0.001743 7.9603e-4,0.001573 0.004456,0.008958 l 0.008708,0.0175402 0.001641,0.003304 0.001582,0.003167 7.9877e-4,0.001608 0.002524,0.0051 0.002466,0.004989 0.001551,0.003136 0.002198,0.004418 0.003081,0.006193 0.004789,0.009626 0.003124,0.00629 0.001437,0.002917 c 0.001049,0.002142 0.006188,0.0124938 0.006996,0.0140904 l 9.2792e-4,0.001853 0.008104,0.0163286 0.003321,0.006699 0.004031,0.008124 0.003272,0.006556 0.003162,0.006368 0.001432,0.002897 0.001571,0.003181 0.002454,0.004942 0.002863,0.00577 0.001981,0.004 0.002992,0.005999 c 0.001423,0.002862 0.002791,0.005392 0.003039,0.005622 3.906e-4,3.6194e-4 0.003142,4.0858e-4 0.0203907,3.4572e-4 l 0.0199391,-7.266e-5 5.9e-5,-7.1371e-4 c 4.271e-5,-5.1679e-4 -2.4848e-4,-0.001241 -0.001055,-0.002624 -7.0286e-4,-0.001205 -0.00107,-0.002073 -9.949e-4,-0.002351 1.4676e-4,-5.4085e-4 -0.001715,-0.003216 0.001142,-0.003136 0.002751,7.74e-5 -7.1966e-4,-0.00165 -7.1966e-4,-0.003049 0,-9.2331e-4 9.1291e-4,0.001259 -0.001204,-0.003011 l -0.001741,-0.003563 -0.002164,-0.004451 -0.002284,-0.004704 -0.003024,-0.006206 -0.005027,-0.0102952 -0.002166,-0.004451 -0.002063,-0.004276 c -5.538e-4,-0.001158 -0.002029,-0.004141 -0.003278,-0.006629 l -4.6911e-4,-0.003909 c -2.0413e-4,-4.671e-4 1.6451e-4,-0.001133 6.2722e-4,-0.001133 2.6408e-4,0 0.003752,7.5457e-4 0.004557,0.001061 8.0502e-4,3.0636e-4 0.002235,6.9991e-4 0.003177,8.7452e-4 9.4235e-4,1.7462e-4 0.00252,5.6966e-4 0.003505,8.7787e-4 0.001571,4.9122e-4 0.004288,9.5237e-4 0.0116124,0.001971 0.002508,3.4863e-4 0.0167356,3.4501e-4 0.019919,-5.13e-6 0.001366,-1.5017e-4 0.003225,-4.5883e-4 0.004132,-6.8592e-4 9.0707e-4,-2.2708e-4 0.002319,-4.9558e-4 0.003137,-5.9666e-4 8.1854e-4,-1.0111e-4 0.002043,-4.2466e-4 0.002721,-7.1901e-4 6.7813e-4,-2.9436e-4 0.001687,-6.7572e-4 0.002241,-8.4744e-4 0.00104,-3.2212e-4 0.003321,-0.001484 0.004031,-0.002053 2.2173e-4,-1.776e-4 0.001038,-7.7386e-4 0.001814,-0.001325 0.001706,-0.001212 0.00463,-0.00518 0.005315,-0.007212 2.454e-4,-7.2867e-4 0.0011,-0.002269 0.0019,-0.003423 7.9938e-4,-0.001154 6.6813e-4,-0.001779 8.9013e-4,-0.002405 2.2124e-4,-6.2588e-4 5.8407e-4,-0.001523 8.0628e-4,-0.001993 3.6979e-4,-7.8278e-4 4.04e-4,-0.001326 4.04e-4,-0.006414 0,-0.005439 -0.001734,-0.006551 -0.002287,-0.008449 -6.379e-4,-0.002189 -0.002863,-0.008519 -0.003377,-0.009605 l -0.00104,-0.00228 c -0.001544,-0.003444 -0.004283,-0.009168 -0.006,-0.0125428 -9.9742e-4,-0.00196 -0.00226,-0.004472 -0.002805,-0.005583 -5.4535e-4,-0.001111 -0.001431,-0.002865 -0.001967,-0.003898 -0.001638,-0.003154 -0.002747,-0.005346 -0.003699,-0.007313 -4.9996e-4,-0.001033 -0.001315,-0.002648 -0.00181,-0.003589 -4.9563e-4,-9.407e-4 -0.001246,-0.002416 -0.001668,-0.003278 -4.2155e-4,-8.6231e-4 -0.00113,-0.002273 -0.001575,-0.003136 l -0.001304,-0.002566 c -0.001293,-0.002604 -0.003028,-0.006045 -0.005333,-0.0105728 l -0.002869,-0.005669 -8.0629e-4,-0.001606 -0.00171,-0.003421 c -6.8952e-4,-0.001393 -0.001985,-0.003945 -0.002879,-0.005669 -8.9407e-4,-0.001725 -0.001863,-0.003649 -0.002153,-0.004276 -2.9025e-4,-6.2714e-4 -0.001003,-0.002038 -0.001583,-0.003136 -5.8051e-4,-0.001097 -0.001406,-0.002718 -0.001834,-0.003601 -0.001944,-0.004009 -0.004021,-0.001357 -0.004429,-0.001762 -3.9572e-4,-3.9199e-4 9.9348e-4,3.329e-5 -0.017083,3.329e-5 -0.015578,0 -0.0155912,-8.437e-4 -0.0163104,1.133e-4 -7.1918e-4,9.5675e-4 -4.1301e-4,0.001609 -4.1301e-4,0.001818 0,5.9655e-4 -0.004422,1.8916e-4 -0.005814,3.816e-5 -8.8585e-4,-9.61e-5 -0.001317,-1.511e-5 -0.001613,3.0273e-4 -4.9877e-4,5.3689e-4 -5.9307e-4,2.9935e-4 0.00252,0.006347 l 0.00262,0.00513 0.003173,0.006281 0.006148,0.0121238 0.006502,0.0128188 0.004031,0.007967 0.003326,0.006559 0.002822,0.005573 c 4.1841e-4,8.7414e-4 0.004332,0.008585 0.005463,0.0107635 0.001182,0.002277 0.003173,0.006892 0.004006,0.009285 l 0.001113,0.003136 c 2.5753e-4,7.0553e-4 0.001204,0.005801 0.001281,0.006389 1.2574e-4,9.5354e-4 7.311e-5,0.001157 -4.9206e-4,0.001904 -9.7015e-4,0.001282 -0.003721,0.001426 -0.007348,0.001781 -0.003742,3.6628e-4 -0.009929,-2.451e-5 -0.0117661,-7.431e-4 -5.6444e-4,-2.2078e-4 -0.001797,-6.4718e-4 -0.00274,-9.4752e-4 -9.4235e-4,-3.0034e-4 -0.002122,-8.0986e-4 -0.00262,-0.001132 -4.989e-4,-3.2243e-4 -0.001093,-5.8905e-4 -0.001321,-5.9247e-4 -2.2767e-4,-3.42e-6 -9.0798e-4,-3.4162e-4 -0.001512,-7.5148e-4 -0.003576,-0.002427 -0.006127,-0.004738 -0.006949,-0.005482 -0.002518,-0.002279 -0.003229,-0.002969 -0.00416,-0.004035 -5.5433e-4,-6.3469e-4 -0.001371,-0.00153 -0.001814,-0.001989 -0.0015,-0.001554 -0.005749,-0.007657 -0.007212,-0.010361 -8.003e-4,-0.001478 -0.001865,-0.003409 -0.002365,-0.004291 -5.0038e-4,-8.8184e-4 -0.001362,-0.00253 -0.001915,-0.003663 -5.5281e-4,-0.001133 -0.001256,-0.002544 -0.001563,-0.003136 l -0.001266,-0.002501 -0.001719,-0.003421 -0.001503,-0.002993 c -9.8885e-4,-0.002 -0.002879,-0.005756 -0.005738,-0.0114008 -0.001608,-0.003174 -0.004804,-0.008595 -0.005359,-0.009724 -5.5432e-4,-0.00113 -0.001367,-0.00275 -0.001807,-0.003601 -4.3959e-4,-8.5094e-4 -0.001187,-0.002341 -0.00166,-0.003311 -4.737e-4,-9.7013e-4 -0.001293,-0.002598 -0.001821,-0.003618 -0.001962,-0.00379 -0.002833,-0.005504 -0.003856,-0.007588 -0.001386,-0.002824 -0.002973,-0.005988 -0.005066,-0.0100996 l -4.944e-4,-0.001707 -0.0177678,-0.001263 c -0.0158756,-0.001128 -0.0205947,3.14e-6 -0.0207841,2.7081e-4 z"
           id="path4499"
           inkscape:connector-curvature="0"
           sodipodi:nodetypes="cccccccccccccccccccccccccccccccccscccccsccccccccccscccccccccccccccsccccccscccccccccccccscssccccccccccccccssccccccccccccccccccccccscc" /></g><g
         inkscape:groupmode="layer"
         id="g4505"
         inkscape:label="intech noir"
         style="display:inline"><path
           style="display:inline;fill:#000000;fill-opacity:1"
           d="m 1222.8014,624.97654 c -0.7621,-0.47102 0.9898,-3.54238 3.7862,-6.63749 0.4445,-0.49197 2.039,-0.525 25.3498,-0.525 13.6819,0 25.0884,-0.0817 25.3487,-0.18159 0.4584,-0.17589 3.5436,-4.35272 9.6174,-13.0184 l 1.5954,-2.25003 2.7936,-3.90019 2.3768,-3.34979 7.3433,-10.32089 8.6247,-12.09986 2.4006,-3.36979 1.8098,-2.54996 9.8034,-13.80128 c 8.9447,-12.57439 12.0165,-16.42912 16.7023,-20.95834 4.3086,-4.16434 8.0815,-7.16684 12.3559,-9.83152 4.8369,-3.01618 12.4332,-6.6901 14.7535,-7.13527 0.5775,-0.11079 1.7919,-0.50676 2.6998,-0.8799 0.9075,-0.37314 2.3247,-0.77228 3.1507,-0.88697 0.825,-0.11469 2.5807,-0.48222 3.8993,-0.81673 4.1836,-1.05977 15.9588,-1.28182 20.9904,-0.39486 1.0636,0.18751 4.2982,1.42705 6.1065,2.34054 1.7637,0.89037 3.5407,2.87515 3.9559,4.41587 0.4828,1.79329 0.1307,2.03534 -1.9869,1.36707 -0.9309,-0.29343 -3.7341,-0.80346 -6.2285,-1.13344 -4.7105,-0.62296 -10.0326,-0.58815 -13.9483,0.0912 -0.9286,0.16112 -2.9067,0.47123 -4.395,0.68912 -2.8337,0.41464 -5.9011,1.24499 -9.0742,2.4563 -1.0345,0.39495 -2.0464,0.71811 -2.2473,0.71811 -0.3439,0 -1.1997,0.39402 -6.8224,3.14036 -6.8848,3.36347 -13.5688,8.3508 -19.9764,14.90641 -4.3622,4.46217 -7.1721,8.03823 -15.148,19.27376 l -7.9907,11.2792 -2.7831,3.90019 -2.7073,3.80232 -9.8942,13.89989 -9.8942,13.89747 -2.7057,3.80022 -2.7058,3.79811 c -3.0093,4.39587 -7.0158,9.74627 -7.4906,9.9999 -0.6544,0.35025 -58.9058,0.60897 -59.4638,0.26409 z m 128.0914,-0.005 c -0.6731,-0.41606 0.113,-1.91326 2.5986,-4.94838 0.4239,-0.51765 0.7707,-1.08713 0.7707,-1.26499 0,-0.88692 1.5761,-0.94437 25.9058,-0.94437 13.6105,0 24.967,-0.0851 25.238,-0.18912 0.4117,-0.15797 2.1059,-2.3921 6.0068,-7.92141 l 5.9993,-8.38973 6.0619,-8.49498 1.7993,-2.52891 5.6377,-7.87722 5.6377,-7.87721 1.7993,-2.52787 6.2122,-8.69913 6.0708,-8.49498 c 1.3364,-1.92905 13.1878,-18.52308 14.9267,-20.90024 0.7441,-1.01714 2.0643,-2.97513 2.9335,-4.34957 l 2.9289,-4.60109 c 0.7417,-1.15449 2.3471,-4.12541 3.5675,-6.5996 2.673,-5.42197 3.7728,-9.11694 3.7728,-12.67258 0,-1.34813 0.1381,-2.52787 0.3083,-2.63311 0.5045,-0.31176 1.9646,1.5102 2.7013,3.36979 0.3779,0.95415 0.8838,1.96588 1.1243,2.24792 0.2993,0.35092 0.4859,1.53651 0.5911,3.75497 0.134,2.82885 0.076,3.41398 -0.4576,4.58741 -0.3361,0.73953 -0.7487,2.09112 -0.9168,3.00355 -0.2755,1.49546 -3.2534,8.07506 -4.6792,10.34088 l -1.2242,1.9501 c -0.8887,1.41863 -7.0456,10.67197 -7.7957,11.71647 l -16.05,22.45327 -5.9994,8.395 -5.0125,7.02792 -2.1,2.96251 c -5.1079,7.12475 -10.8036,15.0992 -11.1787,15.64803 l -2.7161,3.79706 -2.7087,3.79706 c -1.8038,2.68678 -10.6309,14.88178 -11.4316,15.79305 l -1.0022,1.14054 -29.5038,0.0597 c -16.2271,0.0328 -29.6441,-0.027 -29.8155,-0.13308 z m 16.3862,-133.81689 c 0.1055,-0.52764 0.3901,-1.23657 0.6324,-1.57544 1.0929,-1.52703 4.6286,-6.59644 6.6021,-9.46529 l 3.1165,-4.50006 1.9631,-2.8499 3.31,-4.79999 3.938,-5.6998 3.6225,-5.25043 3.9425,-5.6998 3.9113,-5.67875 6.4994,-9.4495 c 3.4186,-4.97679 4.8027,-6.75325 5.5722,-7.15105 0.8475,-0.43789 1.6714,-0.51553 4.7745,-0.45001 3.5168,0.0743 3.7549,0.11733 3.8383,0.69168 0.048,0.33687 -0.3489,1.21447 -0.8826,1.9501 -1.1749,1.61964 -3.9202,5.57561 -6.1333,8.837 -2.6983,3.97807 -6.0261,8.80964 -9.918,14.39999 l -4.517,6.55014 -4.2193,6.15022 -3.2207,4.70002 -2.5837,3.7497 -2.9007,4.20013 c -5.7806,8.4192 -6.6363,9.35163 -9.0623,9.87151 -0.8506,0.18247 -1.8246,0.48066 -2.1654,0.66268 -0.5346,0.2861 -5.6839,1.76592 -6.1452,1.76592 -0.091,0 -0.08,-0.43169 0.026,-0.9593 z"
           id="path4507"
           inkscape:connector-curvature="0"
           sodipodi:nodetypes="ccccccccccccccccccccccccscccccccccccccccccccccccccccccccscccscsccccccccccccsccccccccccccccscccccccccccsccccc" /></g></g><g
       inkscape:label="c"
       id="g4547"
       inkscape:groupmode="layer"
       style="display:inline"><g
         style="display:inline"
         inkscape:label="intech cyan"
         id="g4549"
         inkscape:groupmode="layer"><path
           sodipodi:nodetypes="cccccccccccscccccccccccscccccccccccccsccsccscscccssccscscccccccscccsccccccsccccsscscccccccccscccsccccccscscccccccccccsscscc"
           inkscape:connector-curvature="0"
           id="path4551"
           d="m 0.74541056,0.40923018 c -0.005731,4.6556e-4 -0.0141202,0.001581 -0.0153626,0.002042 -7.9976e-4,2.9707e-4 -0.002296,6.3167e-4 -0.003326,7.4356e-4 -0.00105,1.1414e-4 -0.002447,4.8389e-4 -0.003182,8.4253e-4 -7.2062e-4,3.5151e-4 -0.00167,7.3392e-4 -0.00211,8.498e-4 -4.3963e-4,1.1588e-4 -0.001075,4.1232e-4 -0.001411,6.5875e-4 -3.3644e-4,2.4641e-4 -0.001201,6.7554e-4 -0.001922,9.5359e-4 -0.002264,8.7352e-4 -0.004086,0.001872 -0.005442,0.00298 l -0.002117,0.001708 c -0.002101,0.00166 -0.003945,0.001629 -0.004597,0.002248 -0.001361,0.001294 -0.003001,0.003167 -0.004093,0.005221 -0.001205,0.001179 -0.001572,0.001555 -0.00217,0.002207 -4.0112e-4,4.3676e-4 -9.0547e-4,9.9478e-4 -0.001372,0.001688 -0.001129,0.00156 -0.002836,0.006317 -0.003079,0.007657 -1.2467e-4,6.8675e-4 -3.7027e-4,0.001762 -5.4577e-4,0.002389 -4.892e-4,0.001748 -5.991e-4,0.009193 -1.6624e-4,0.01126 0.001097,0.005237 0.00138,0.006615 0.001728,0.008409 3.5557e-4,0.001832 9.2923e-4,0.003649 0.003014,0.00955 0.001214,0.003435 0.004079,0.009696 0.006274,0.0137078 0.005365,0.009807 0.0134077,0.0201105 0.0211934,0.0271496 l 0.003427,0.003111 c 4.6753e-4,4.2954e-4 0.001213,0.001041 0.001656,0.001358 4.4346e-4,3.1762e-4 0.001351,0.001018 0.002016,0.001556 0.002727,0.002207 0.006154,0.004714 0.006444,0.004714 1.3219e-4,0 6.8657e-4,3.203e-4 0.001232,7.1181e-4 5.4539e-4,3.9147e-4 0.001421,9.1439e-4 0.001947,0.001162 5.2532e-4,2.4766e-4 0.001003,5.5892e-4 0.001061,6.9173e-4 5.803e-5,1.3281e-4 5.7958e-4,4.6414e-4 0.001159,7.3629e-4 5.794e-4,2.7217e-4 0.001327,7.3047e-4 0.001661,0.001018 3.3394e-4,2.8797e-4 7.3003e-4,5.2409e-4 8.8024e-4,5.2469e-4 1.502e-4,0 6.9801e-4,3.0287e-4 0.001217,6.7177e-4 5.1935e-4,3.689e-4 0.001296,8.3498e-4 0.001726,0.001036 4.3008e-4,2.0075e-4 0.001061,5.8837e-4 0.001403,8.6146e-4 7.5499e-4,6.0351e-4 0.003672,0.001975 0.006668,0.003135 0.00122,4.723e-4 0.002943,0.001178 0.00383,0.001569 8.8692e-4,3.9045e-4 0.002021,8.3395e-4 0.00252,9.856e-4 4.9889e-4,1.5163e-4 0.001426,5.3643e-4 0.002061,8.5511e-4 6.3471e-4,3.187e-4 0.00129,5.7944e-4 0.001455,5.7944e-4 1.6566e-4,0 9.616e-4,3.0354e-4 0.001769,6.7455e-4 8.072e-4,3.7098e-4 0.002103,7.6208e-4 0.002879,8.6912e-4 7.7606e-4,1.0702e-4 0.002545,5.014e-4 0.003931,8.7637e-4 0.001386,3.7497e-4 0.003109,7.652e-4 0.00383,8.6716e-4 7.2062e-4,1.0197e-4 0.002081,4.2058e-4 0.003024,7.0807e-4 9.4235e-4,2.8746e-4 0.002575,6.5847e-4 0.003628,8.244e-4 0.002188,3.4476e-4 0.0134821,0.001336 0.0181415,0.001592 0.004037,2.2203e-4 0.0146592,-2.8843e-4 0.0171549,-8.244e-4 0.001065,-2.2871e-4 0.003242,-5.6215e-4 0.004838,-7.4097e-4 0.001596,-1.7885e-4 0.003627,-5.5952e-4 0.004514,-8.4595e-4 8.8692e-4,-2.8643e-4 0.002111,-6.0952e-4 0.002721,-7.1793e-4 6.0976e-4,-1.0844e-4 0.001987,-5.0659e-4 0.00306,-8.8475e-4 0.001073,-3.7816e-4 0.002188,-6.8757e-4 0.002477,-6.8757e-4 5.0857e-4,0 0.003059,-0.001084 0.005751,-0.002444 7.2062e-4,-3.64e-4 0.00164,-7.4424e-4 0.002042,-8.4495e-4 8.5731e-4,-2.1443e-4 0.002345,-0.001415 0.002345,-0.001887 0,-1.8096e-4 -5.1453e-4,-0.001218 -8.5307e-4,-0.001996 -8.4103e-4,-0.001145 -0.00104,-0.001983 -0.001042,-0.002273 -3e-6,-3.748e-4 3.6295e-4,-2.911e-5 5.0989e-4,-2.9721e-4 4.9889e-4,-2.9909e-4 7.5251e-4,-1.4148e-4 0.001218,-3.1705e-4 0.001492,-5.6397e-4 0.001501,5.79e-6 -5.9608e-4,-0.003909 -0.002926,-0.005464 -0.003853,-0.007179 -0.004314,-0.007982 -4.7354e-4,-8.2412e-4 -0.001788,-0.003261 -0.005687,-0.0105473 -0.002975,-0.005559 -0.002615,-0.00384 -0.00295,-0.004022 -6.5247e-4,-3.5408e-4 -0.001259,-1.4669e-4 -0.001997,6.833e-4 -4.1852e-4,4.7035e-4 -0.002702,0.002043 -0.002817,0.002043 -1.1459e-4,0 -3.5158e-4,1.8176e-4 -5.266e-4,4.0391e-4 -7.2923e-4,9.2554e-4 -2.5165e-4,6.9927e-4 -0.001158,9.7327e-4 -3.8803e-4,1.1736e-4 -0.002524,0.002147 -0.003047,0.002521 -5.2292e-4,3.7263e-4 -0.001017,8.9615e-4 -0.001201,8.9615e-4 -1.8384e-4,0 -9.2848e-4,9.467e-5 -0.001552,4.7759e-4 -6.236e-4,3.8293e-4 -0.001905,8.3384e-4 -0.002847,0.001002 -9.4235e-4,1.6818e-4 -0.00227,5.5248e-4 -0.002951,8.5396e-4 -8.5985e-4,3.8081e-4 -0.002367,6.4165e-4 -0.004939,8.5447e-4 -0.002035,1.6848e-4 -0.004717,4.4695e-4 -0.005958,6.1879e-4 -0.001634,2.2611e-4 -0.002887,2.2651e-4 -0.004535,0 -0.001253,-1.711e-4 -0.004177,-4.4798e-4 -0.006497,-6.1531e-4 -0.003218,-2.3207e-4 -0.004652,-4.6152e-4 -0.006047,-9.6762e-4 -0.001006,-3.6488e-4 -0.002582,-7.5279e-4 -0.003503,-8.6203e-4 -9.2104e-4,-1.0923e-4 -0.002157,-4.3329e-4 -0.002746,-7.2012e-4 -5.895e-4,-2.868e-4 -0.001605,-6.7702e-4 -0.002256,-8.6713e-4 -6.5132e-4,-1.9011e-4 -0.001502,-5.7201e-4 -0.00189,-8.4863e-4 -3.8802e-4,-2.7663e-4 -0.001114,-5.9693e-4 -0.001613,-7.1178e-4 -4.9889e-4,-1.1482e-4 -0.001426,-5.1502e-4 -0.00206,-8.8934e-4 -6.3413e-4,-3.7431e-4 -0.00136,-6.805e-4 -0.001613,-6.8044e-4 -2.5277e-4,6e-8 -0.001004,-3.7189e-4 -0.001669,-8.2657e-4 -6.6519e-4,-4.5467e-4 -0.001844,-0.001237 -0.00262,-0.001739 -0.004713,-0.003048 -0.006588,-0.00432 -0.007156,-0.004853 l -0.00131,-0.001177 -0.002016,-0.001802 -0.002016,-0.001811 c -0.001746,-0.001543 -0.002326,-0.002178 -0.005312,-0.005822 -0.002902,-0.003541 -0.00501,-0.00675 -0.008071,-0.0122898 -0.001069,-0.001935 -0.00429,-0.0101439 -0.004992,-0.0127234 -2.7735e-4,-0.001019 -6.2764e-4,-0.002544 -7.7841e-4,-0.003389 -3.5062e-4,-0.001965 -0.001332,-0.0106247 -0.001171,-0.0113227 4.1687e-4,-0.001812 0.001264,-0.003989 0.002311,-0.004824 0.002231,-0.001781 0.006254,-0.003377 0.0103382,-0.004102 0.005782,-0.001027 0.0168935,-7.6229e-4 0.0226769,5.4033e-4 0.001663,3.7455e-4 0.003659,7.5873e-4 0.004435,8.5371e-4 0.001349,1.6508e-4 0.004968,0.001128 0.007761,0.002065 7.2062e-4,2.417e-4 0.002136,6.5963e-4 0.003144,9.2873e-4 0.002258,6.0242e-4 0.005101,0.001569 0.007237,0.002461 8.8692e-4,3.7027e-4 0.002338,9.3409e-4 0.003225,0.001253 l 0.003527,0.001289 c 0.001053,3.8983e-4 0.002028,7.0878e-4 0.002167,7.0878e-4 6.646e-4,0 6.888e-5,-0.001851 -0.001432,-0.004449 -0.001585,-0.002743 -0.001944,-0.00345 -0.001944,-0.003825 0,-5.5453e-4 -0.002022,-0.003463 -1.3347e-4,-0.002521 0.00162,8.0815e-4 0.002613,0.001011 0.003252,6.6397e-4 7.3788e-4,-0.003112 -9.9183e-4,-0.002521 -0.002055,-0.004468 -0.001598,-0.002993 -0.001679,-0.00302 -0.002784,-0.00486 -7.2062e-4,-0.001348 -3.8367e-4,-0.001642 -9.9322e-4,-0.002707 -6.0976e-4,-0.001065 -0.001381,-0.002473 -0.001713,-0.00313 -0.001505,-0.002972 -0.003661,-0.007208 -0.004161,-0.007485 -0.001197,-6.6171e-4 -0.002367,-0.001437 -0.003567,-0.001606 -6.9722e-4,-9.806e-5 -0.001805,-4.2098e-4 -0.002461,-7.1759e-4 -6.5754e-4,-2.968e-4 -0.001765,-6.2496e-4 -0.002462,-7.2944e-4 -6.9673e-4,-1.0426e-4 -0.002355,-4.849e-4 -0.003686,-8.4565e-4 C 0.7799652,0.4125037 0.7780142,0.41212168 0.7769612,0.4120155 0.7759082,0.41190931 0.7742752,0.41158437 0.7733332,0.41129341 0.7723272,0.41098269 0.7699562,0.4106393 0.7675882,0.41046128 0.7653712,0.41029457 0.7629412,0.41003101 0.7621892,0.40987559 0.7591732,0.4092523 0.7496495,0.40888542 0.7454153,0.40922938 Z"
           style="fill:#97a6cd"
           transform="matrix(1488.3,0,0,-1052.4,0,1052.4)" /></g><g
         style="display:inline"
         inkscape:label="intech noir"
         id="g4553"
         inkscape:groupmode="layer"><path
           sodipodi:nodetypes="ccscccccccccscccccccsccccccccccccccccccccccccccccccccccccccccccccccsccscccccccccccccsccccccscc"
           inkscape:connector-curvature="0"
           id="path4555"
           d="m 1109.6122,624.8539 c -0.33,-0.0688 -4.3131,-0.25542 -8.8495,-0.41469 -6.2955,-0.22092 -8.8896,-0.43122 -10.9494,-0.88748 -1.485,-0.32889 -4.1181,-0.74991 -5.8505,-0.93559 -4.892,-0.5244 -11.4986,-2.1711 -16.9499,-4.22644 -0.825,-0.31094 -1.972,-0.65634 -2.5495,-0.76754 -1.0073,-0.19398 -3.2728,-1.3155 -6.9861,-3.45714 l -2.5495,-1.45231 c -2.8635,-1.58702 -4.4455,-2.80149 -7.0009,-5.37355 -2.7355,-2.75308 -4.0214,-4.50007 -3.8011,-5.16308 0.054,-0.16344 0.6855,0.12766 1.4022,0.64687 0.7168,0.51923 1.8619,1.25025 2.5435,1.62385 2.8977,1.58597 6.3952,3.59921 7.0918,4.08226 0.8375,0.58026 5.0557,2.24582 6.4488,2.54681 0.495,0.10686 1.777,0.50224 2.8501,0.87865 4.6539,1.63332 7.8508,2.55944 8.836,2.55944 0.5824,0 2.7817,0.32591 4.8861,0.72426 6.3685,1.205 13.3173,1.9522 21.5274,2.31423 9.3078,0.41064 25.2676,0.15084 30.2077,-0.49176 1.8663,-0.2427 5.9577,-0.63867 9.092,-0.87996 3.1344,-0.24126 6.7152,-0.63936 7.9565,-0.88467 1.2411,-0.24527 3.6716,-0.58641 5.3995,-0.7581 3.444,-0.34197 10.3914,-1.52387 14.3934,-2.44788 1.4025,-0.32397 3.8205,-0.79278 5.3742,-1.04181 1.5538,-0.24903 3.2803,-0.66957 3.8399,-0.93453 0.9437,-0.44781 2.8709,-2.72783 8.1052,-9.59263 6.3253,-8.29502 8.074,-10.40613 8.9164,-10.76889 1.4685,-0.63274 3.7476,-1.34813 6.1646,-1.93537 1.2375,-0.30078 2.9021,-0.77826 3.6984,-1.06082 1.0399,-0.36908 1.5404,-0.42248 1.774,-0.18921 0.3726,0.37257 0.074,0.82372 -3.999,6.04709 l -5.3073,6.84376 -5.0171,6.50488 -5.4977,7.17632 c -2.6968,3.53817 -3.2415,4.09805 -4.2,4.32115 l -3.8011,0.90826 c -1.485,0.35835 -3.6449,0.78066 -4.7998,0.93848 -1.155,0.15781 -2.7757,0.4927 -3.6002,0.74416 -0.825,0.25146 -2.6477,0.59556 -4.0496,0.76464 -1.4025,0.16908 -4.6421,0.63729 -7.2004,1.04045 -6.1839,0.97498 -17.5395,2.19005 -23.8501,2.55102 -5.6168,0.32199 -22.7483,0.64425 -23.6999,0.44583 z m -12.332,-44.27045 c -1.6341,-1.74909 -1.9175,-6.13292 -1.9175,-9.51849 0,-3.15194 1.5925,-9.20008 3.2103,-12.20015 l 1.2893,-2.40053 1.7845,-3.30033 1.4522,-2.70045 c 0.5314,-1.01455 2.4973,-3.54659 6.5425,-8.42868 4.2089,-5.07783 11.2248,-10.92959 18.8501,-15.7197 6.4741,-4.06752 8.0428,-4.88524 16.6703,-8.6865 1.5672,-0.69073 3.2058,-1.44705 3.6404,-1.68174 0.4344,-0.23434 1.7085,-0.63912 2.8307,-0.89956 1.1229,-0.26043 2.3054,-0.61478 2.6284,-0.78752 1.5939,-0.85288 12.902,-3.75075 16.2504,-4.16435 1.485,-0.18347 3.8473,-0.60468 5.2507,-0.93596 6.751,-1.59439 30.6978,-0.8286 36.7751,-0.6013 2.7375,-0.0486 5.2132,0.23955 6.5423,0.41824 2.2771,0.30606 5.2239,1.19553 10.7827,3.25402 3.7863,1.4018 5.3154,2.09639 6.3539,2.44368 1.6179,0.47629 5.347,2.82366 6.8978,3.67295 0.8346,0.45672 1.2894,0.53907 1.8336,0.33207 0.3982,-0.15138 1.7845,-1.6691 3.0823,-3.37294 l 3.8741,-5.14842 10.0774,-12.45212 c 0.9906,-1.29655 1.9824,-2.42683 2.2041,-2.51208 0.7841,-0.30087 6.8581,1.48178 7.6097,2.2332 0.4271,0.42708 0.058,1.04346 -3.048,5.0873 -3.0138,3.92545 -5.9904,7.8288 -12.4244,16.29915 -5.6689,7.46257 -6.9563,9.00012 -7.5397,9.00012 -0.1985,0 -1.2183,-0.53106 -2.2667,-1.17974 -2.35,-1.45547 -6.4458,-3.87914 -7.4549,-4.41166 -0.7077,-0.37304 -2.6387,-1.08502 -5.7001,-2.10164 -0.7425,-0.24657 -1.9393,-0.71472 -2.6596,-1.04031 -1.5985,-0.72246 -7.9476,-2.09533 -14.2907,-3.0909 -11.1801,-1.7533 -29.6078,-1.04925 -41.8499,1.59965 -1.5672,0.33915 -3.2921,0.61839 -3.8324,0.62058 -0.5404,0.003 -1.7547,0.2796 -2.6998,0.61653 -0.9446,0.33693 -2.4601,0.79764 -3.368,1.02381 -0.9075,0.22617 -2.4602,0.68526 -3.4499,1.02021 -0.99,0.33495 -2.475,0.81129 -3.2995,1.05872 -2.9692,0.88989 -4.5319,1.45757 -6.4503,2.34264 l -6.7495,3.08564 c -3.8234,1.7354 -5.587,2.68888 -9.4507,5.10729 l -4.3503,2.70783 c -3.3025,2.05323 -5.8282,4.04437 -11.2009,8.8349 -3.4514,3.07721 -10.0073,10.86834 -11.9764,14.2335 -2.2667,3.87388 -2.4333,4.1675 -2.9915,5.27568 -0.2915,0.57824 -0.8156,1.52282 -1.1646,2.09953 -1.4284,2.36054 -3.4439,8.79386 -3.6166,11.54862 -0.1417,2.2491 0.5615,5.28734 0.1969,5.41921 -0.2572,0.0931 -1.8355,-0.61954 -2.3142,-1.3598 z"
           style="display:inline;fill:#000000;fill-opacity:1" /></g></g><g
       inkscape:label="e"
       id="g4537"
       inkscape:groupmode="layer"
       style="display:inline"><g
         style="display:inline"
         inkscape:label="intech cyan"
         id="g4539"
         inkscape:groupmode="layer"><path
           sodipodi:nodetypes="ccccccccccccccccccccccccsccccccccccccccscccccccccccccccccccccccccscccccccccscsccccccccsccccsscsccccsccccccccccccccccccccsscscc"
           inkscape:connector-curvature="0"
           id="path4541"
           d="m 0.58659127,0.41014236 c -0.006456,5.1844e-4 -0.0148171,0.001267 -0.0156218,0.001398 -5.5432e-4,9.059e-5 -0.001597,3.5525e-4 -0.002318,5.8811e-4 -7.2062e-4,2.3287e-4 -0.002535,5.9459e-4 -0.004031,8.0382e-4 -0.001864,2.6052e-4 -0.003007,5.6682e-4 -0.003628,9.7201e-4 -4.9889e-4,3.2537e-4 -0.001134,5.9858e-4 -0.001411,6.0716e-4 -2.7717e-4,8.55e-6 -0.001003,2.7403e-4 -0.001613,5.8996e-4 -6.0976e-4,3.1591e-4 -0.001789,8.15e-4 -0.00262,0.001109 -0.002655,9.3902e-4 -0.004709,0.002221 -0.008466,0.005284 -2.7716e-4,2.26e-4 -8.6676e-4,6.5322e-4 -0.00131,9.4943e-4 -0.0029,0.001937 -0.003179,0.002108 -0.004512,0.004052 -7.676e-5,4.3242e-4 -0.003812,0.004077 -0.004218,0.004891 -0.001146,0.002298 -0.002062,0.004936 -0.00274,0.007894 -5.9022e-4,0.002572 -6.2161e-4,0.002944 -6.2667e-4,0.007412 -5.84e-6,0.005089 -1.0826e-4,0.004323 0.001602,0.0119726 2.6285e-4,0.001176 5.8252e-4,0.002715 7.1034e-4,0.003421 2.3759e-4,0.001311 0.00316,0.0100333 0.003811,0.0113734 1.9817e-4,4.0801e-4 9.2133e-4,0.002004 0.001607,0.003546 0.003525,0.00793 0.007989,0.0150731 0.0146305,0.0234106 0.005225,0.00656 0.006456,0.008006 0.008164,0.009593 0.009849,0.009155 0.0108238,0.0100215 0.0125983,0.0112048 l 0.006853,0.004582 0.003628,0.002423 0.002307,0.001541 c 6.0381e-4,4.0704e-4 0.00126,7.4005e-4 0.001457,7.4005e-4 1.9778e-4,0 9.283e-4,3.0422e-4 0.001623,6.7606e-4 6.9511e-4,3.718e-4 0.002216,0.001095 0.00338,0.001607 0.001164,5.1218e-4 0.002615,0.001178 0.003225,0.00148 6.0975e-4,3.0208e-4 0.001635,7.3332e-4 0.002278,9.5826e-4 6.4298e-4,2.2498e-4 0.001414,5.847e-4 0.001713,7.9938e-4 7.8833e-4,5.653e-4 0.005117,0.002082 0.006964,0.002441 8.6991e-4,1.687e-4 0.002276,5.518e-4 0.003124,8.5128e-4 8.485e-4,2.9952e-4 0.002042,6.3085e-4 0.002651,7.3632e-4 6.0975e-4,1.0547e-4 0.001789,4.276e-4 0.00262,7.1588e-4 0.002922,0.001013 0.008091,0.001749 0.0168334,0.002398 0.006519,4.8375e-4 0.0169646,-1.369e-5 0.0200544,-9.5511e-4 0.001053,-3.2086e-4 0.002187,-5.8859e-4 0.00252,-5.9492e-4 3.326e-4,-6.27e-6 0.002101,-4.4775e-4 0.003931,-9.809e-4 0.003151,-9.183e-4 0.00495,-0.001655 0.007795,-0.00319 6.841e-4,-3.6919e-4 0.001389,-6.7124e-4 0.001567,-6.7124e-4 3.3002e-4,0 0.002639,-0.00162 0.004446,-0.003121 l 0.001776,-0.001438 c 0.002033,-0.001592 0.003063,-0.002786 0.005201,-0.006034 0.001274,-0.001935 0.002626,-0.004223 0.003005,-0.005085 3.789e-4,-8.6231e-4 0.001209,-0.002402 0.001844,-0.003421 0.001586,-0.003111 0.001897,-0.003948 0.001786,-0.008602 -9.512e-5,-0.004739 -4.1828e-4,-0.008285 -9.6811e-4,-0.0105803 -1.5029e-4,-6.2714e-4 -3.3439e-4,-0.001717 -4.0911e-4,-0.002423 -7.475e-5,-7.0553e-4 -3.0067e-4,-0.00182 -5.0208e-4,-0.002476 -2.0141e-4,-6.5656e-4 -4.6672e-4,-0.001879 -5.8958e-4,-0.002716 -1.2288e-4,-8.37e-4 -5.5533e-4,-0.002416 -9.6101e-4,-0.00351 l -0.00132,-0.003556 c -3.2011e-4,-8.6231e-4 -8.8724e-4,-0.002338 -0.00126,-0.003278 -3.7303e-4,-9.4071e-4 -8.2034e-4,-0.002124 -9.9403e-4,-0.002629 -1.7368e-4,-5.0547e-4 -7.5511e-4,-0.001852 -0.001292,-0.002993 -0.00268,-0.005695 -0.003348,-0.007157 -0.003558,-0.007725 -5.8872e-4,-0.001599 -0.002442,-6.5703e-4 -0.0326582,-2.8785e-4 -0.028873,-2.86e-6 -0.0350726,-3.1124e-4 -0.0352769,-7.144e-5 -0.002197,0.0011 -0.00396,9.8901e-4 -0.007516,0.001192 -4.1574e-4,9.718e-5 -0.00127,1.7808e-4 -0.001898,1.7982e-4 -6.2841e-4,2.85e-6 -0.001286,8.099e-5 -0.001461,1.7617e-4 -5.4911e-4,2.9798e-4 -0.002891,6.1277e-4 -0.001957,0.002691 4.9293e-4,0.001097 0.001044,0.00237 0.001224,0.002828 3.5581e-4,9.0425e-4 9.278e-4,0.002011 0.002828,0.00547 0.001564,0.002848 0.007399,0.0114024 0.008154,0.0119541 4.8634e-4,3.5564e-4 0.00337,4.1559e-4 0.0199915,4.1559e-4 0.0152387,0 0.0203253,1.4239e-4 0.0205687,4.2195e-4 0.00192,0.004233 0.00196,0.0103316 0.002144,0.0160809 3.209e-5,0.001147 -0.001036,0.00184 -0.002952,0.003151 -0.001739,0.00119 -0.004599,0.002118 -0.006867,0.00252 -0.002139,3.795e-4 -0.0143469,-0.001282 -0.0157183,-0.001659 l -0.003326,-9.0253e-4 c -0.001275,-3.4399e-4 -0.003044,-9.4125e-4 -0.003931,-0.001327 -8.8692e-4,-3.8604e-4 -0.001779,-6.9969e-4 -0.001982,-6.9701e-4 -2.0314e-4,2.85e-6 -9.8936e-4,-3.7993e-4 -0.001747,-8.5029e-4 -7.5779e-4,-4.7035e-4 -0.001529,-8.5518e-4 -0.001713,-8.5518e-4 -4.1705e-4,0 -0.002531,-0.001275 -0.00547,-0.0033 -0.001234,-8.5046e-4 -0.00321,-0.00266 -0.003267,-0.00266 -5.707e-5,0 -6.7978e-4,-5.1194e-4 -0.001384,-0.001138 -7.0404e-4,-6.2571e-4 -0.001688,-0.001463 -0.002187,-0.001861 -0.003619,-0.002888 -0.007502,-0.007155 -0.011137,-0.0123961 -0.003597,-0.005185 -0.005392,-0.008206 -0.008311,-0.0139803 -0.001541,-0.003049 -0.002312,-0.004829 -0.003893,-0.008992 -5.0274e-4,-0.001323 -0.001541,-0.004897 -0.001546,-0.005321 -2.42e-6,-2.089e-4 -1.8964e-4,-9.5707e-4 -4.1602e-4,-0.001663 -7.865e-4,-0.002451 -0.001237,-0.007367 -7.8527e-4,-0.008562 2.3227e-4,-6.1374e-4 0.002444,-0.005327 0.002908,-0.005327 1.6777e-4,0 7.2891e-4,-3.1873e-4 0.001247,-7.083e-4 5.1808e-4,-3.8954e-4 0.001507,-8.3882e-4 0.002197,-9.9837e-4 6.9024e-4,-1.5955e-4 0.001799,-5.3145e-4 0.002464,-8.264e-4 6.6519e-4,-2.9498e-4 0.00198,-6.2586e-4 0.002923,-7.3529e-4 9.4235e-4,-1.0944e-4 0.002595,-3.805e-4 0.003673,-6.0237e-4 0.003378,-6.9524e-4 0.0101054,-8.1451e-4 0.016585,-2.9398e-4 0.007692,6.1793e-4 0.0105825,9.6109e-4 0.0135053,0.001604 0.00133,2.9242e-4 0.003779,7.3099e-4 0.005442,9.7466e-4 0.001663,2.4365e-4 0.003341,5.7469e-4 0.003729,7.3561e-4 3.8803e-4,1.6094e-4 0.001567,4.8791e-4 0.00262,7.2662e-4 0.001053,2.3868e-4 0.00255,6.7395e-4 0.003326,9.6722e-4 7.7605e-4,2.9327e-4 0.001865,6.1767e-4 0.002419,7.2087e-4 0.002151,4.0034e-4 0.008474,0.002568 0.0119936,0.004112 0.004021,0.001764 0.005573,0.002352 0.006322,0.002398 0.001262,7.682e-5 0.001206,-6.7597e-4 -2.3889e-4,-0.003246 -6.5557e-4,-0.001166 -0.001252,-0.002391 -0.001324,-0.002723 -7.289e-5,-3.321e-4 -8.3656e-4,-0.002086 -0.001055,-0.002737 -5.6542e-4,-0.001603 -1.4976e-4,-0.001893 0.001041,-0.001022 3.0085e-4,2.2001e-4 9.9204e-4,4.9439e-4 0.001536,6.0975e-4 -6.5212e-4,-0.00368 -0.001152,-0.003781 -0.002237,-0.005778 l -0.002251,-0.004289 c -5.6323e-4,-0.001056 -0.00147,-0.002817 -0.002016,-0.003913 -5.454e-4,-0.001096 -4.0805e-4,-0.001711 -8.2905e-4,-0.002489 l -0.001759,-0.003317 c -9.5214e-4,-0.001823 -0.001042,-0.001916 -0.002157,-0.002228 -6.4011e-4,-1.7873e-4 -0.001708,-5.6627e-4 -0.002373,-8.612e-4 -6.6519e-4,-2.9495e-4 -0.001754,-6.1733e-4 -0.002419,-7.1642e-4 -6.6519e-4,-9.909e-5 -0.001754,-4.2292e-4 -0.002419,-7.1964e-4 -6.6519e-4,-2.9672e-4 -0.002071,-7.3153e-4 -0.003124,-9.6628e-4 -0.001053,-2.3472e-4 -0.002401,-6.1992e-4 -0.002996,-8.5596e-4 -5.9446e-4,-2.3606e-4 -0.00191,-5.1083e-4 -0.002923,-6.106e-4 -0.001013,-9.98e-5 -0.002658,-4.3469e-4 -0.003656,-7.4421e-4 -9.9779e-4,-3.095e-4 -0.003039,-7.4165e-4 -0.004535,-9.6029e-4 -0.001497,-2.1865e-4 -0.003635,-5.892e-4 -0.004752,-8.2341e-4 -0.001117,-2.342e-4 -0.003776,-5.5407e-4 -0.005909,-7.1077e-4 -0.002133,-1.567e-4 -0.004621,-4.1454e-4 -0.005528,-5.7301e-4 -9.0766e-4,-1.5844e-4 -0.004508,-4.187e-4 -0.008,-5.7836e-4 -0.006111,-2.7936e-4 -0.007249,-2.9062e-4 -0.009675,-9.575e-5 z"
           style="fill:#97a6cd"
           transform="matrix(1488.3,0,0,-1052.4,0,1052.4)" /></g><g
         style="display:inline"
         inkscape:label="intech noir"
         id="g4543"
         inkscape:groupmode="layer"><path
           sodipodi:nodetypes="ccsccccccscccccscccscccccsccccscsccccccccsccccccccccccccccccscscccscscccccsccccccsccccccccccscccccscccccsccccc"
           inkscape:connector-curvature="0"
           id="path4545"
           d="m 875.16211,624.8408 c -0.41251,-0.0643 -5.20458,-0.2487 -10.65027,-0.40992 -7.64391,-0.22632 -10.58628,-0.4266 -12.91249,-0.87873 -1.65648,-0.32211 -4.62713,-0.74061 -6.60061,-0.93006 -3.81154,-0.36591 -10.30946,-1.75119 -12.77408,-2.72256 -0.81666,-0.3219 -1.75322,-0.58527 -2.08064,-0.58527 -0.32803,0 -1.36927,-0.28398 -2.31431,-0.63108 -0.94461,-0.34709 -2.39319,-0.80321 -3.2177,-1.01361 -0.825,-0.21035 -2.44528,-0.89237 -3.6002,-1.51546 l -5.23584,-2.77202 c -3.93358,-2.05639 -5.61536,-3.29927 -8.26304,-6.11128 -3.22664,-3.42557 -4.37263,-5.96922 -1.82764,-4.06016 0.97191,0.72962 8.1038,4.70317 8.44164,4.70317 0.1071,0 0.55308,0.25341 0.99105,0.56313 1.12451,0.79521 5.0111,2.33317 6.8298,2.70151 0.84316,0.17106 2.19376,0.56799 3.00042,0.88209 0.8068,0.31413 2.00623,0.66945 2.66703,0.78966 0.66,0.12021 2.16845,0.54369 3.35314,0.94107 1.18411,0.39738 2.62387,0.72252 3.19836,0.72252 0.57488,0 3.04804,0.32853 5.49778,0.73008 9.2096,1.5102 16.28527,2.09007 29.80187,2.43947 7.75999,0.20088 25.29886,-0.26458 29.09998,-0.7723 1.23751,-0.16527 5.21947,-0.50088 8.84943,-0.74577 3.62997,-0.24492 8.35532,-0.71196 10.49996,-1.03788 l 6.89976,-1.05661 c 1.65052,-0.25509 4.55271,-0.6738 6.45029,-0.93048 1.89758,-0.25671 4.9352,-0.78563 6.74944,-1.17553 1.81573,-0.38976 3.83982,-0.79044 4.50062,-0.8904 0.66,-0.0999 2.61792,-0.505 4.3503,-0.90015 1.73238,-0.39516 4.00204,-0.87013 5.04385,-1.05556 1.04199,-0.18534 2.75187,-0.60176 3.79963,-0.92544 2.10297,-0.64946 1.37577,0.13959 7.16914,-7.78039 l 6.59763,-9.00012 c 1.63416,-2.22583 3.27575,-3.60026 4.30119,-3.60026 0.38724,0 1.47693,-0.28168 2.42147,-0.62593 2.06724,-0.75318 5.92492,-1.77435 6.70479,-1.77435 0.30912,0 0.56129,0.16875 0.56043,0.37499 -0.003,0.58831 -0.0531,0.65974 -10.25439,14.46082 l -3.77432,5.11467 c -4.62266,6.27651 -6.98608,9.38951 -7.36709,9.70628 -0.22961,0.19056 -1.21284,0.49035 -2.18482,0.66615 -0.97209,0.1758 -3.18497,0.63828 -4.91735,1.02774 -9.48344,2.13216 -18.62131,3.82758 -22.64999,4.20224 -1.15499,0.10761 -3.44988,0.456 -5.1004,0.77421 -1.65053,0.31818 -5.31174,0.77589 -8.13654,1.01709 -2.82479,0.2412 -6.79409,0.64377 -8.82115,0.8946 -4.92776,0.61008 -32.75347,1.55124 -35.09203,1.18711 z m -20.55166,-43.25605 c -0.56158,-0.41024 -1.97646,-2.46472 -2.40658,-3.49502 -0.23538,-0.56332 -0.57208,-1.95325 -0.7482,-3.08774 -0.28596,-1.84275 -0.24189,-2.37316 0.41151,-4.94733 1.66392,-6.55645 5.33109,-14.20498 9.6293,-20.08358 l 4.05562,-5.54194 c 3.43649,-4.68949 10.9524,-12.32182 16.45911,-16.7118 2.72657,-2.17426 5.97999,-4.58425 7.22867,-5.35566 3.78326,-2.33738 8.55178,-5.18939 8.87027,-5.30725 0.16552,-0.0608 1.71899,-0.78807 3.45137,-1.61649 3.9693,-1.89748 6.96822,-3.15931 8.7006,-3.66235 0.7425,-0.21546 1.95712,-0.65634 2.69978,-0.97978 0.7425,-0.3234 1.95711,-0.68033 2.69977,-0.79316 0.7425,-0.11284 2.15953,-0.46588 3.15074,-0.78453 0.99,-0.31867 4.29821,-1.00848 7.35071,-1.53335 5.22989,-0.89865 6.00827,-0.95539 13.50037,-0.98454 10.82292,-0.0421 18.01364,0.86789 22.39609,2.83411 4.43364,1.98904 8.20351,5.55457 8.20351,7.75935 0,0.79455 -0.69162,0.79743 -1.96903,0.008 -0.54421,-0.33636 -1.6401,-0.79629 -2.43485,-1.02207 -0.79528,-0.22581 -1.9854,-0.61176 -2.6462,-0.85764 -0.66,-0.24592 -2.68489,-0.54034 -4.50062,-0.65427 -1.81573,-0.11394 -4.78489,-0.39672 -6.60061,-0.62841 -3.76838,-0.481 -8.02045,-0.52717 -12.15048,-0.132 -7.26291,0.69497 -11.40187,1.23341 -12.52256,1.62806 -0.67066,0.23661 -2.34556,0.64803 -3.72373,0.91427 -1.37739,0.26629 -3.85469,0.96169 -5.50373,1.54493 -1.65052,0.58368 -3.81005,1.30603 -4.79977,1.60491 -0.99,0.29883 -2.20566,0.75633 -2.69977,1.01667 -0.495,0.26034 -2.85754,1.426 -5.25072,2.58995 -2.39319,1.16396 -5.09297,2.58259 -5.99934,3.15299 -0.90751,0.56997 -2.25775,1.38286 -3.00041,1.80698 -2.66853,1.52282 -3.499,2.08901 -6.74945,4.61267 -5.96213,4.62635 -8.1663,6.61749 -13.11341,11.84066 -5.28941,5.58614 -8.83901,10.17986 -13.71022,17.74483 -1.09547,1.70173 -3.80707,7.20157 -4.43513,9.00012 -1.7428,4.98101 0.0844,12.74983 0.0844,13.73382 0,0.783 -3.31331,-3.16525 -3.92671,-3.61336 z m 38.42372,-14.94166 c -0.37374,-0.37374 -0.40086,-0.60158 -0.13149,-1.10502 0.58699,-1.0966 2.42593,-3.63393 3.371,-4.6495 l 0.90672,-0.97501 52.93064,0 52.93066,0 1.2355,-1.28919 c 0.6795,-0.70923 2.0375,-2.56575 3.0183,-4.1254 0.9806,-1.55966 3.1537,-4.92839 4.828,-7.48573 1.6744,-2.55733 3.6999,-5.86502 4.4977,-7.34996 l 2.3515,-4.34957 c 1.9273,-3.53817 2.9304,-5.84187 3.3695,-7.73724 0.252,-1.08713 0.6411,-2.41315 0.8645,-2.94883 1.2338,-2.95303 1.8024,-9.1001 1.2378,-13.38884 -0.1896,-1.44179 -0.1706,-2.02482 0.066,-2.02482 0.4786,0 2.1715,2.8036 3.1686,5.25043 1.8098,4.43691 1.9795,12.26561 0.3685,16.99699 -0.4125,1.21132 -0.8417,2.74256 -0.9538,3.40347 -0.6538,3.85073 -6.5664,14.30969 -16.6173,29.39942 -0.7692,1.15448 -1.7279,2.26687 -2.1312,2.47104 -0.5748,0.29087 -13.06582,0.37205 -57.78685,0.37553 -51.44012,0.004 -57.09982,-0.0419 -57.52444,-0.46641 z"
           style="display:inline;fill:#000000;fill-opacity:1" /></g></g><g
       inkscape:label="T"
       id="g4523"
       inkscape:groupmode="layer"
       style="display:inline"><g
         style="display:inline;opacity:1"
         inkscape:label="intech marine"
         id="g4529"
         inkscape:groupmode="layer"><path
           sodipodi:nodetypes="ccscccccccccccccccccscscccccsccczcccccsccccccccccccccccccccccc"
           inkscape:connector-curvature="0"
           id="path4531"
           d="m 0.44708721,0.40931891 c -6.2959e-4,3.2942e-4 -0.001219,-0.001061 -1.257e-5,0.001283 0.001308,0.002543 -5.71e-5,0.002039 -0.001458,0.002302 -5.5433e-4,1.0385e-4 -0.003612,-4.5609e-4 -0.004527,-4.4235e-4 -0.001562,2.337e-5 -0.001663,6.211e-5 -0.001663,6.3845e-4 0,3.3743e-4 2.7485e-4,0.001139 6.1075e-4,0.001782 3.359e-4,6.4251e-4 0.001167,0.002387 0.001847,0.003876 0.001175,0.002574 0.002461,0.005362 0.00628,0.0136117 l 0.006279,0.0136117 0.006242,0.0135405 c 0.003914,0.008447 0.004522,0.009765 0.00894,0.0193843 l 0.003362,0.007269 0.003361,0.007269 c 0.003173,0.006917 0.004011,0.008735 0.005712,0.0124002 l 0.006585,0.0142531 0.006514,0.0141106 0.003281,0.007127 c 6.7658e-4,0.001489 0.001418,0.003093 0.001647,0.003563 l 0.001587,0.003421 0.001562,0.003385 7.4307e-4,0.001568 c 4.6279e-4,9.8455e-4 0.003597,0.007508 0.003113,0.007874 -2.6615e-4,2.0146e-4 -0.018774,2.951e-4 -0.0583239,2.951e-4 -0.0567144,0 -0.0579414,1.14e-5 -0.0582815,5.4302e-4 -0.002948,0.001267 -0.001844,0.001447 -0.005334,0.001581 -0.00106,8.27e-6 -0.001252,6.5023e-4 -0.001626,0.005436 -1.8927e-4,0.002422 -4.3471e-4,0.006904 -5.4539e-4,0.009962 -1.1071e-4,0.003057 -2.9825e-4,0.006649 -4.1679e-4,0.007982 -4.3873e-4,0.004932 -7.2508e-4,0.010705 -5.6211e-4,0.0113313 l 1.6694e-4,6.4151e-4 0.25040535,-7.138e-5 c 0.22473455,-6.405e-5 0.25096822,2.1192e-4 0.25102159,-1.8007e-4 3.272e-5,-2.4023e-4 -3.7952e-4,-9.5898e-4 -0.001063,-0.002423 -6.8348e-4,-0.001464 -0.001211,-0.002819 -0.00183,-0.004081 0,0 0.001388,-8.2529e-4 -2.3674e-4,-0.003399 l -0.00115,-0.00224 c -6.1468e-4,-0.001196 -7.2206e-4,-0.001411 -0.00433,-0.0087 l -0.004033,-0.008124 -0.003753,-0.007554 c -0.00144,-0.002898 -1.7636e-4,-0.002157 -4.0736e-4,-0.002432 -3.9793e-4,-4.7414e-4 -0.002686,-4.9886e-4 -0.14947611,-4.9886e-4 -0.13559394,0 -0.1582014,-3.1363e-4 -0.15857306,-6.8176e-4 -4.076e-4,-4.0461e-4 -0.003855,-0.005428 -0.007229,-0.0127556 l -0.003224,-0.006985 -0.002963,-0.006414 -0.003088,-0.006699 -0.003286,-0.007127 -0.003157,-0.006842 -0.002961,-0.006414 -0.003092,-0.006699 -0.003285,-0.007127 -0.002759,-0.005986 -0.002962,-0.006414 -0.00349,-0.007554 -0.006252,-0.0135405 -0.006045,-0.0131129 -0.006386,-0.0138255 -0.006514,-0.0141106 -0.00268,-0.007595 c 6.8897e-4,-3.2612e-4 0.002993,-9.778e-5 -0.0187479,-1.6243e-4 -0.0127186,-3.783e-5 -0.0233118,2.913e-5 -0.0235404,1.4877e-4 z"
           style="opacity:1;fill:#00599d;fill-opacity:1"
           transform="matrix(1488.3,0,0,-1052.4,0,1052.4)" /></g><g
         style="display:inline"
         inkscape:label="intech noir"
         id="g4533"
         inkscape:groupmode="layer"><path
           sodipodi:nodetypes="csccccccccccccccccscccsssccccccccsccccccccccccccscccccccccsccccc"
           inkscape:connector-curvature="0"
           id="path4535"
           d="m 660.49085,624.92414 c -0.57488,-0.32168 -0.5382,-1.09028 0.0979,-2.04902 l 1.78745,-2.70046 c 0.69524,-1.05129 1.40931,-2.08059 1.58653,-2.28686 0.25421,-0.29538 6.74051,-0.375 30.5536,-0.375 23.73169,0 30.33275,-0.0806 30.70512,-0.375 0.26081,-0.20625 1.79043,-2.40052 3.39928,-4.87471 l 4.19403,-6.45016 4.80125,-7.34996 5.19119,-7.94983 4.40835,-6.7501 4.70154,-7.19947 13.4959,-20.69997 9.79302,-14.99996 4.40536,-6.75009 9.34504,-14.32496 4.45151,-6.82481 14.3993,-22.04999 9.0057,-13.80002 5.19268,-7.94983 c 6.26425,-9.60104 6.41011,-9.8031 7.4415,-10.23353 0.8523,-0.35614 34.96627,-0.41685 230.4327,-0.41031 l 229.4323,0.008 1.2,-1.3155 c 0.66,-0.7236 1.5121,-1.7733 1.8946,-2.33212 4.2804,-6.25757 17.3962,-24.62606 18.0769,-25.31612 0.8878,-0.8999 0.8883,-0.9 4.9486,-0.99855 4.0407,-0.098 4.9293,0.0766 4.9293,0.96934 0,0.19103 -1.4369,2.3679 -3.1925,4.83788 l -4.6434,6.59118 -3.2505,4.64951 -3.4707,4.95049 -5.9011,8.40025 -2.2622,3.26455 c -0.7767,1.13554 -1.7741,2.45104 -2.2161,2.92462 l -0.8043,0.86093 -229.66,0 c -135.81008,0 -229.95111,0.11061 -230.37212,0.27069 -0.84873,0.32269 -1.78596,1.55019 -5.29091,6.929 l -4.98431,7.6499 -5.1897,7.94983 -4.40537,6.75009 -13.25331,20.325 -9.34802,14.32496 -10.0996,15.44996 -4.50211,6.89954 -8.60535,13.20004 -9.00272,13.80002 -9.99394,15.3 -4.79828,7.34996 c -13.06132,20.07127 -14.15671,21.71954 -14.83091,22.33014 -0.50664,0.45852 -3.34421,0.50394 -34.95793,0.55944 -18.92359,0.0332 -34.59941,-0.0475 -34.8353,-0.17948 z M 577.55627,465.55692 c -0.4113,-0.4956 -0.95562,-5.33357 -0.6807,-6.05025 0.0926,-0.24141 0.49629,-0.56355 0.89703,-0.71593 0.43945,-0.16707 35.75745,-0.27701 88.9923,-0.27701 80.71483,0 88.32272,0.0414 88.9545,0.48384 0.50796,0.3558 0.64432,0.66894 0.51525,1.1829 -0.21507,0.85686 -2.6968,4.58636 -3.53173,5.3083 -0.57563,0.4974 -5.18524,0.525 -87.68766,0.525 -77.63896,0 -87.12122,-0.0496 -87.45936,-0.45709 z"
           style="display:inline;fill:#000000;fill-opacity:1" /></g></g><g
       inkscape:label="N"
       id="g4467"
       inkscape:groupmode="layer"
       style="display:inline"><g
         style="display:inline;opacity:1"
         inkscape:label="intech marine"
         id="g4473"
         inkscape:groupmode="layer"><path
           sodipodi:nodetypes="ccsscsccsscsccccccccccccccccccccccccccccccccccccccccccccsscccscsccscscccccccccccccccccccccccccccccccc"
           inkscape:connector-curvature="0"
           id="path4475"
           d="m 0.33239938,0.41220181 c -0.001242,0 -0.001341,3.7184e-4 -0.001594,0.006004 -1.2356e-4,0.002754 -3.9974e-4,0.007179 -6.1374e-4,0.009835 -2.1401e-4,0.002656 -4.4653e-4,0.006368 -5.1671e-4,0.008249 -7.017e-5,0.001881 -3.0081e-4,0.005537 -5.125e-4,0.008124 -2.1171e-4,0.002587 -4.8067e-4,0.00682 -5.9772e-4,0.009407 -1.1704e-4,0.002587 -3.48e-4,0.006271 -5.1325e-4,0.008188 -3.7004e-4,0.004291 -8.9965e-4,0.0151452 -0.001783,0.025768 -8.8327e-4,0.0106228 -9.3592e-4,0.0197689 -0.001621,0.0282554 -2.8758e-4,0.003564 -5.2288e-4,0.007435 -5.2288e-4,0.008603 0,0.001576 -3.1466e-4,0.0110671 -5.5723e-4,0.0114101 -4.9091e-4,6.9427e-4 -0.001292,-0.002562 -0.003293,-0.007014 -6.6856e-4,-0.001488 -0.001792,-0.003935 -0.005237,-0.0114025 l -0.002488,-0.005416 -0.00262,-0.005701 -0.003018,-0.006556 -0.002423,-0.005274 -0.002621,-0.005701 -0.00564,-0.0122577 -0.002883,-0.006271 -0.009053,-0.0196693 -0.006495,-0.0141378 -0.005552,-0.012088 -0.002764,-0.005986 -0.005154,-0.007867 c -0.00128,-0.002861 -0.0243626,-8.8532e-4 -0.0243626,-8.8532e-4 l -0.0134549,8.441e-5 c -0.001258,0.001264 -6.7228e-4,8.1207e-4 -0.001684,0.001493 0,8.3184e-4 -0.001748,9.1841e-4 -0.004072,0.001036 -0.001294,6.556e-5 -0.002427,2.1813e-4 -0.002519,3.3905e-4 -9.18e-5,1.209e-4 7.3025e-4,0.002128 0.001827,0.004459 0.001097,0.002332 0.002804,0.006005 0.003795,0.008164 l 0.00422,0.009146 0.004117,0.008904 0.003544,0.007673 0.003626,0.007839 0.00289,0.006271 0.009411,0.020382 0.003548,0.007697 0.001589,0.003421 0.001586,0.003421 c 0.001576,0.00345 0.003917,0.00853 0.00624,0.0135405 l 0.003087,0.006699 0.001586,0.003421 0.002246,0.004846 c 0.003623,0.007898 0.004193,0.009135 0.004603,0.009977 2.2893e-4,4.7035e-4 9.4185e-4,0.00201 0.001584,0.003421 l 0.002685,0.005844 0.003092,0.006699 0.003688,0.007982 0.003162,0.006842 0.003239,0.006984 c 0.001205,0.002587 0.002439,0.005384 0.002743,0.006215 3.0369e-4,8.3139e-4 0.001311,0.00314 0.002239,0.005131 l 0.003253,0.006995 c 8.6101e-4,0.001857 0.001739,0.003621 0.00195,0.00392 3.7444e-4,5.2953e-4 0.001082,5.4381e-4 0.0269674,5.4381e-4 0.0190328,0 0.0201431,-1.2335e-4 0.0256506,-5.193e-5 l 0.001827,2.369e-5 4.7749e-4,-0.005888 c 0.00177,-0.005947 0.001845,-0.006289 0.002777,-0.0185531 0.001935,-0.0249643 0.002481,-0.0284159 0.002646,-0.0303349 1.6487e-4,-0.001919 3.9503e-4,-0.005541 5.1147e-4,-0.00805 1.1647e-4,-0.002509 3.8739e-4,-0.006806 6.0208e-4,-0.00955 2.147e-4,-0.002744 4.8573e-4,-0.007105 6.0232e-4,-0.009692 1.1657e-4,-0.002587 3.4416e-4,-0.006179 5.0576e-4,-0.007982 1.6158e-4,-0.001803 4.332e-4,-0.006036 6.0359e-4,-0.009407 1.7039e-4,-0.003371 4.4205e-4,-0.007631 6.0369e-4,-0.009466 1.6162e-4,-0.001836 3.9615e-4,-0.005684 5.2117e-4,-0.008552 1.5244e-4,-0.003497 3.1346e-4,-0.005342 4.8891e-4,-0.005602 4.4711e-4,-6.6172e-4 0.001355,6.0601e-4 0.003221,0.004496 9.4658e-4,0.001973 0.00226,0.004678 0.002918,0.006011 l 0.002379,0.004846 0.002783,0.005673 0.002668,0.005416 0.00218,0.004446 0.002811,0.005701 0.002803,0.005701 0.00227,0.004628 0.002458,0.004989 0.003747,0.007626 0.001565,0.003211 c 6.388e-4,0.001321 0.001373,0.002682 0.001632,0.003026 l 4.7061e-4,6.2522e-4 0.0218511,-7.69e-6 0.0221031,-8.55e-6 c 4.0006e-4,0 2.9047e-4,-6.1497e-4 -3.5652e-4,-0.001996 l -0.001202,-0.002566 C 0.44419463,0.5364792 0.44411023,0.5357822 0.4445799,0.5355272 0.4434489,0.5259712 0.44404031,0.5283442 0.4391059,0.518017 l -0.008158,-0.0170325 -0.004199,-0.008766 -0.005522,-0.011545 -0.00457,-0.00955 -0.003481,-0.007269 -0.00409,-0.008552 -0.00491,-0.0102623 -0.0118238,-0.0267437 c -0.002053,-0.002867 -0.001608,-0.0029 -0.002904,-0.006793 -0.0202665,6.7202e-4 -0.0312885,-0.001846 -0.0570507,6.9894e-4 z"
           style="opacity:1;fill:#00599d;fill-opacity:1"
           transform="matrix(1488.3,0,0,-1052.4,0,1052.4)" /></g><g
         style="display:inline"
         inkscape:label="intech noir"
         id="g4477"
         inkscape:groupmode="layer"><path
           sodipodi:nodetypes="cscsccccccccccccccccccccccccccccsscscccssccccccccccccccccscccccccccccccccsccccccssscsccssssscscccccsccccccccc"
           inkscape:connector-curvature="0"
           id="path4479"
           d="m 495.47233,618.37137 c -0.3129,-0.37704 2.12486,-0.51177 2.91872,-0.67053 0.51826,-0.10365 17.64023,-0.18846 38.04869,-0.18846 l 37.10644,0 0.75667,-0.825 c 0.41616,-0.45375 2.01665,-2.7152 3.55555,-5.02521 l 5.35044,-7.94983 12.79789,-18.90006 6.49941,-9.59999 13.50185,-19.95003 5.72252,-8.43919 6.70181,-9.89993 7.28672,-10.76048 6.32378,-9.33689 7.50401,-11.09998 7.67665,-11.36276 c 2.00028,-2.96987 3.96186,-5.5672 4.36072,-5.77031 0.46971,-0.2404 2.1759,-0.37213 4.85781,-0.375 3.55407,-0.004 4.16129,0.0645 4.32203,0.48635 0.10358,0.26995 0.0656,0.67123 -0.0844,0.89176 l -1.89312,2.73413 c -1.49871,2.15742 -3.45434,5.03994 -12.4779,18.38322 l -6.60657,9.75049 -7.10068,10.49979 -5.58261,8.24976 -6.20026,9.14957 -8.12314,11.99999 -12.58655,18.60001 -6.08715,9.00013 -7.00543,10.35035 -13.89179,20.51054 -2.77717,4.10647 c -0.52833,0.79539 -1.2384,1.59438 -1.57759,1.77645 -0.43719,0.23397 -10.70684,0.34871 -35.18937,0.39324 -32.90319,0.0599 -44.29747,0.30814 -44.29747,0.30814 0,0 -2.88627,-6.31869 -3.18917,-6.55402 z m -125.41484,7.02392 c -1.07217,-0.004 -4.98887,-0.01 -19.79693,-0.16891 -10.44787,0.0126 -19.11423,-0.22808 -19.20516,-0.31903 -0.32109,-0.32112 0.21132,-1.63333 1.2492,-3.07933 0.5777,-0.80492 1.32243,-1.96483 1.65499,-2.57838 0.33252,-0.61323 0.86525,-1.25446 1.18385,-1.42495 0.38683,-0.20699 9.86297,-0.31001 28.51881,-0.31001 19.14757,0 28.12678,-0.1003 28.53502,-0.31875 0.52448,-0.28069 2.38724,-2.99198 7.61117,-11.08125 l 3.95293,-6.0755 8.95063,-13.72498 8.14696,-12.52504 8.33745,-12.82496 7.50996,-11.54999 4.19999,-6.45016 4.10919,-6.29967 c 3.68355,-5.62928 6.79409,-10.40718 8.78842,-13.49997 l 3.60615,-5.55036 4.20444,-6.45016 4.19999,-6.45016 8.38508,-12.9 3.01827,-4.64951 2.05981,-3.22455 c 0.59201,-0.94875 1.20996,-1.72488 1.37318,-1.72488 0.71599,0 1.17081,1.63543 1.62671,5.85029 0.54975,5.07678 0.63012,8.37605 0.19759,8.10874 -0.30841,-0.19059 -2.02111,1.92063 -3.44691,4.24854 -0.81261,1.32708 -2.12231,3.34979 -8.1157,12.5425 l -3.60466,5.55036 -3.89934,5.99973 -4.49169,6.89954 -7.50252,11.54998 -8.4476,12.97504 -4.24165,6.52488 -13.47358,20.69997 -9.66651,14.87862 -8.26304,12.72142 -4.11366,6.29966 -3.72373,5.75242 c -1.89163,2.99092 -0.92885,2.81307 -15.69397,2.88463 -9.65163,0.0467 -12.88861,-0.26222 -13.73255,-0.3064 z m 175.41522,-70.26166 c -0.17081,-0.31914 -0.31055,-1.21553 -0.31055,-1.99114 0,-0.77598 -0.26673,-3.72129 -0.59272,-6.54488 -0.32598,-2.82359 -0.73455,-7.36154 -0.90789,-10.0841 -0.17334,-2.72256 -0.51348,-6.57013 -0.75585,-8.54969 -0.24237,-1.97957 -0.64659,-6.43543 -0.89823,-9.89993 -0.25167,-3.4645 -0.65487,-7.92036 -0.896,-9.89993 -0.24115,-1.97956 -0.57721,-5.75978 -0.7468,-8.40026 -0.16962,-2.64047 -0.57471,-7.22998 -0.90023,-10.19986 -0.32551,-2.96987 -0.73026,-7.49203 -0.89944,-10.05042 -0.16917,-2.55733 -0.56643,-7.01214 -0.88284,-9.89992 -0.31637,-2.88779 -0.66063,-6.80272 -0.76499,-8.70019 -0.10437,-1.89748 -0.44607,-5.6777 -0.75936,-8.40026 -0.31327,-2.72256 -0.71538,-7.17737 -0.89356,-9.89993 -0.17816,-2.72256 -0.52152,-6.59223 -0.76302,-8.59916 -0.24149,-2.00692 -0.68853,-6.11889 -0.68853,-6.11889 0,0 1.87641,0.0182 2.44603,0.0182 0.57005,0 1.347,0.25143 1.72643,0.55876 0.61736,0.49992 0.72848,0.98162 1.05528,4.57478 1.65945,25.74075 1.12587,17.83092 3.71926,46.46746 0.32188,2.72256 0.72787,7.24472 0.90219,10.05042 0.17437,2.80464 0.5734,7.2605 0.88675,9.89992 0.31337,2.64048 0.65705,6.5554 0.76376,8.70019 0.10668,2.1448 0.45396,6.01763 0.77173,8.60653 0.31775,2.58891 0.71379,6.96268 0.88008,9.72102 0.16632,2.75834 0.57057,7.3226 0.89838,10.14408 0.70484,6.06604 1.18893,14.70824 0.88524,15.80442 -0.11811,0.4263 -0.56982,1.3376 -1.00377,2.02482 -0.86175,1.36496 -1.75768,1.62911 -2.27114,0.66957 z"
           style="display:inline;fill:#000000;fill-opacity:1" /></g></g><g
       style="display:inline"
       inkscape:groupmode="layer"
       id="g4481"
       inkscape:label="I"><g
         inkscape:groupmode="layer"
         id="g4487"
         inkscape:label="i marine"
         style="display:inline;opacity:1"><path
           transform="matrix(1488.3,0,0,-1052.4,0,1052.4)"
           style="opacity:1;fill:#00599d;fill-opacity:1"
           d="m 0.1252334,0.4175512 c 0.005157,0.0111213 0.006593,0.0142265 0.009583,0.0207327 l 0.003025,0.006556 0.003425,0.007412 0.00316,0.006841 0.003225,0.006984 0.003027,0.006556 0.003083,0.006699 0.002245,0.004846 0.00159,0.003421 0.006111,0.0132554 0.003144,0.006841 c 6.7846e-4,0.001489 0.001423,0.003093 0.001655,0.003563 2.319e-4,4.7035e-4 9.4899e-4,0.00201 0.001594,0.003421 0.001501,0.003287 0.003813,0.008306 0.006238,0.0135405 l 0.002962,0.006414 0.009267,0.0200969 0.003225,0.006984 0.002961,0.006414 0.003088,0.006699 0.00329,0.007127 c 0.004086,0.008821 0.005029,0.0108631 0.006582,0.0142531 8.616e-4,0.001881 0.001709,0.003581 0.001883,0.003777 2.4922e-4,2.8044e-4 0.005309,3.5633e-4 0.0237613,3.5633e-4 0.0227333,0 0.0234446,-1.597e-5 0.0234446,-5.3093e-4 -9.2029e-4,-0.003068 -0.002076,-0.00632 -0.002076,-0.00632 0,0 -0.009294,-0.0202579 -0.0138997,-0.0302286 L 0.23788829,0.55704421 0.2327289,0.544157 0.2297669,0.537743 0.2264739,0.529829 0.2197589,0.5160782 0.2167999,0.5096642 0.2134399,0.5023952 0.2101519,0.4952682 0.2070599,0.4885692 0.2040319,0.4815252 0.2008749,0.4746842 0.1969399,0.4675572 0.1938519,0.4608582 0.1908889,0.4544442 0.1876639,0.4474602 0.1841759,0.4399062 0.1810139,0.4330642 0.1779879,0.4265082 0.1747319,0.4194532 c -0.003957,-0.008578 -0.003104,-0.005694 -0.003463,-0.005966 -3.9207e-4,-2.968e-4 -0.0435744,-1.8967e-4 -0.0442918,-1.292e-5 -0.001017,2.094e-5 -0.002644,-7.126e-5 -0.003656,-4.157e-5 7.3868e-4,0.001567 0.001283,0.002712 0.001914,0.00412 z"
           id="path4489"
           inkscape:connector-curvature="0"
           sodipodi:nodetypes="cccccccccccccccccccccsscccccccccccccccccccccccscccc" /></g><g
         inkscape:groupmode="layer"
         id="g4491"
         inkscape:label="i noir"
         style="display:inline"><path
           style="display:inline;fill:#000000;fill-opacity:1"
           d="m 190.69085,623.72422 c -0.67444,-0.37743 -0.5268,-0.82506 0.99631,-3.02039 0.78374,-1.13028 1.71452,-2.52892 2.06725,-3.10879 0.0759,-0.0956 0.21498,-0.27053 0.36498,-0.27799 0.22594,-0.1453 14.24971,-0.0575 30.82282,-0.0502 23.98485,0.0105 30.20949,-1.30134 30.71878,-1.61322 0.34934,-0.21384 0.92625,-0.86134 1.28204,-1.43864 0.35579,-0.5775 2.14762,-3.34452 3.98269,-6.15022 l 5.38467,-8.24976 9.60102,-14.70003 9.69925,-14.85 9.45219,-14.47502 4.45597,-6.82482 9.69033,-14.84999 9.0057,-13.80002 9.64418,-14.77496 4.84442,-7.42468 4.706,-7.20052 4.79828,-7.34996 4.59439,-7.05003 8.86431,-13.57501 c 6.41606,-9.85573 14.11504,-21.63861 19.7862,-30.27639 1.58951,-2.42052 3.1939,-4.61478 3.56597,-4.87472 1.00048,-0.70076 8.79288,-0.69783 9.06226,0.003 0.10068,0.26241 0.0876,0.63366 -0.0291,0.825 l -3.94548,6.04814 -10.00138,15.30001 -10.28861,15.75 -8.70953,13.35001 -5.09446,7.80039 -5.09742,7.80039 -4.60183,7.05003 c -8.45949,12.93147 -11.22773,17.17938 -13.78612,21.14998 -1.16927,1.81539 -2.40807,3.7055 -2.75484,4.20012 -0.3456,0.495 -1.45659,2.18268 -2.46909,3.74971 l -4.29524,6.5996 -4.79828,7.34996 -5.18821,7.94983 -8.31364,12.75003 -5.19268,7.94983 -9.70521,14.85 -4.60182,7.05003 -4.88907,7.50045 -9.74092,14.89641 c -2.13868,3.26349 -4.0199,5.82714 -4.35625,5.93343 -0.88294,0.28022 -69.03524,0.35834 -69.53323,0.0797 z"
           id="path4493"
           inkscape:connector-curvature="0"
           sodipodi:nodetypes="csccccccccccccccccccccccccccccccccccccccccccccc" /></g></g></g></svg>